<svg width="1864" height="1307" viewBox="0 0 1864 1307" fill="none" xmlns="http://www.w3.org/2000/svg">
<path fill-rule="evenodd" clip-rule="evenodd" d="M13.4625 1189.62C2.28012 1169.24 24.438 1167.47 24.438 1167.47C-3.72595 1132.99 7.04043 1113.78 7.04043 1113.78C16.5678 1119.66 22.7808 1129.07 22.7808 1129.07C36.4479 1118.09 43.0746 1133.77 43.0746 1133.77C21.1235 1151.8 48.8738 1180.67 48.8738 1180.67C42.1084 1152.84 65.0256 1146.05 74.9645 1153.63C84.9056 1161.2 85.3194 1171.53 77.1741 1177.66C69.0312 1183.81 58.8127 1178.06 60.6063 1171.65C62.4022 1165.25 72.4798 1164.6 72.4798 1164.6C72.4798 1164.6 66.9579 1157.03 58.3989 1161.99C49.8399 1166.95 53.9796 1186.55 53.9796 1186.55C78.554 1206.14 79.3156 1231.94 79.3156 1231.95C79.3156 1231.95 106.582 1232.67 127.289 1255.92C127.289 1255.92 147.999 1259.84 153.243 1251.74C158.49 1243.64 150.481 1238.41 150.481 1238.41C150.481 1238.41 149.79 1247.95 143.027 1249.65C136.262 1251.34 130.188 1241.68 136.676 1233.97C143.164 1226.26 154.071 1226.66 162.08 1236.06C170.086 1245.47 162.907 1267.15 133.5 1260.75C133.5 1260.75 164.012 1287.01 183.062 1266.24C183.062 1266.24 199.63 1272.51 188.032 1285.44C188.032 1285.44 197.973 1291.32 204.188 1300.34C204.188 1300.34 183.892 1310.53 147.444 1283.87C147.444 1283.87 145.582 1304.84 124.045 1294.26C124.045 1294.26 139.781 1280.94 132.122 1270.16C128.046 1264.43 118.58 1256.81 108.493 1250.87C95.988 1243.52 79.7862 1245.22 69.3744 1255.07C60.9587 1263.03 58.6081 1275.46 64.5459 1285.22C64.9278 1285.85 65.3416 1286.47 65.7849 1287.08C72.8958 1296.81 80.9706 1288.78 80.9706 1288.78C80.9706 1288.78 74.137 1282.31 80.5568 1275.45C86.9766 1268.59 104.165 1276.23 99.1934 1289.17C94.2239 1302.1 74.7576 1303.67 63.5752 1294.65C63.5752 1294.65 65.6462 1298.96 57.9829 1307C57.9829 1307 59.2969 1277.54 43.4201 1265.91C31.1329 1250.89 0 1252.13 0 1252.13C8.49079 1244.88 13.0488 1246.84 13.0488 1246.84C3.52135 1236.26 5.17859 1217.84 18.8457 1213.14C32.5128 1208.43 40.5898 1224.7 33.3426 1230.77C26.093 1236.84 19.2594 1230.38 19.2594 1230.38C19.2594 1230.38 10.7709 1238.02 21.0531 1244.75C21.6987 1245.17 22.3557 1245.56 23.0195 1245.92C33.3335 1251.54 46.4641 1249.32 54.8776 1241.35C65.2893 1231.5 67.0852 1216.17 59.3105 1204.33C53.0407 1194.79 44.9887 1185.83 38.9326 1181.98C27.5434 1174.73 13.4625 1189.62 13.4625 1189.62ZM154.901 1214.11C154.901 1214.11 131.29 1221.56 110.789 1202.16C90.2888 1182.76 98.159 1160.42 98.159 1160.42C98.159 1160.42 103.128 1177.66 110.505 1183.86C117.805 1189.99 138.095 1176.21 138.533 1175.91L138.54 1175.9C138.533 1175.91 123.579 1195.45 130.126 1202.43C136.676 1209.41 154.901 1214.11 154.901 1214.11ZM79.2974 1194.83C79.2974 1194.83 96.9178 1204.18 85.9423 1225.67C108.653 1215.29 118.541 1231.96 118.541 1231.96C118.541 1231.96 119.005 1220.91 112.381 1217.25C105.754 1213.59 94.5013 1217.58 94.5013 1217.58L94.5029 1217.57C94.5961 1217.33 98.6674 1206.85 94.8468 1200.66C91.455 1195.16 82.0527 1194.82 79.7907 1194.82C79.4725 1194.82 79.2974 1194.83 79.2974 1194.83ZM47.2665 1225.14C47.2665 1225.14 47.6303 1200.4 24.163 1200.66C24.163 1200.66 30.2668 1195.88 37.1799 1195.88C41.3037 1195.88 45.7162 1197.58 49.2852 1203.01C57.4851 1215.47 47.2665 1225.14 47.2665 1225.14ZM324.414 1255.45C324.414 1260.15 326.835 1264.31 330.561 1266.87H319.624L304.941 1252.98L290.258 1266.87H277.443C276.266 1263.69 273.06 1261.4 269.289 1261.4V1266.87H215.557V1272.27H269.289V1277.75C273.06 1277.75 276.266 1275.46 277.443 1272.27H290.258L304.941 1286.17L319.624 1272.27H330.561C326.835 1274.84 324.414 1279 324.414 1283.69C324.414 1291.49 331.098 1297.82 339.338 1297.82C347.579 1297.82 354.26 1291.49 354.26 1283.69C354.26 1279 351.839 1274.84 348.113 1272.27H359.05L373.736 1286.17L388.421 1272.27H401.231C402.411 1275.46 405.619 1277.75 409.388 1277.75V1272.27H463.12V1266.87H409.388V1261.4C405.619 1261.4 402.411 1263.69 401.231 1266.87H388.421L373.736 1252.98L359.05 1266.87H348.113C351.839 1264.31 354.26 1260.15 354.26 1255.45C354.26 1247.66 347.579 1241.33 339.338 1241.33C331.098 1241.33 324.414 1247.66 324.414 1255.45ZM112.379 1284.14C112.654 1261.93 86.5106 1262.27 86.5106 1262.27C86.5106 1262.27 91.7142 1257.35 99.4798 1257.35C102.597 1257.35 106.125 1258.14 109.894 1260.36C125.25 1269.4 112.379 1284.14 112.379 1284.14ZM3.15989 1304.01H42.4017C42.4017 1283.5 24.8313 1266.87 3.15989 1266.87V1304.01ZM480.12 1266.5C478.187 1266.5 476.62 1268.07 476.62 1270C476.62 1271.93 478.187 1273.5 480.12 1273.5H480.369C482.302 1273.5 483.869 1271.93 483.869 1270C483.869 1268.07 482.302 1266.5 480.369 1266.5H480.12ZM496.303 1266.5C494.37 1266.5 492.803 1268.07 492.803 1270C492.803 1271.93 494.37 1273.5 496.303 1273.5H496.801C498.734 1273.5 500.301 1271.93 500.301 1270C500.301 1268.07 498.734 1266.5 496.801 1266.5H496.303ZM512.735 1266.5C510.802 1266.5 509.235 1268.07 509.235 1270C509.235 1271.93 510.802 1273.5 512.735 1273.5H513.233C515.166 1273.5 516.733 1271.93 516.733 1270C516.733 1268.07 515.166 1266.5 513.233 1266.5H512.735ZM529.167 1266.5C527.234 1266.5 525.667 1268.07 525.667 1270C525.667 1271.93 527.234 1273.5 529.167 1273.5H529.665C531.598 1273.5 533.165 1271.93 533.165 1270C533.165 1268.07 531.598 1266.5 529.665 1266.5H529.167ZM545.599 1266.5C543.666 1266.5 542.099 1268.07 542.099 1270C542.099 1271.93 543.666 1273.5 545.599 1273.5H546.097C548.03 1273.5 549.597 1271.93 549.597 1270C549.597 1268.07 548.03 1266.5 546.097 1266.5H545.599ZM562.031 1266.5C560.098 1266.5 558.531 1268.07 558.531 1270C558.531 1271.93 560.098 1273.5 562.031 1273.5H562.529C564.462 1273.5 566.029 1271.93 566.029 1270C566.029 1268.07 564.462 1266.5 562.529 1266.5H562.031ZM578.463 1266.5C576.53 1266.5 574.963 1268.07 574.963 1270C574.963 1271.93 576.53 1273.5 578.463 1273.5H578.961C580.894 1273.5 582.461 1271.93 582.461 1270C582.461 1268.07 580.894 1266.5 578.961 1266.5H578.463ZM594.895 1266.5C592.962 1266.5 591.395 1268.07 591.395 1270C591.395 1271.93 592.962 1273.5 594.895 1273.5H595.393C597.326 1273.5 598.893 1271.93 598.893 1270C598.893 1268.07 597.326 1266.5 595.393 1266.5H594.895ZM611.327 1266.5C609.394 1266.5 607.827 1268.07 607.827 1270C607.827 1271.93 609.394 1273.5 611.327 1273.5H611.825C613.758 1273.5 615.325 1271.93 615.325 1270C615.325 1268.07 613.758 1266.5 611.825 1266.5H611.327ZM627.759 1266.5C625.826 1266.5 624.259 1268.07 624.259 1270C624.259 1271.93 625.826 1273.5 627.759 1273.5H628.257C630.19 1273.5 631.757 1271.93 631.757 1270C631.757 1268.07 630.19 1266.5 628.257 1266.5H627.759ZM644.191 1266.5C642.258 1266.5 640.691 1268.07 640.691 1270C640.691 1271.93 642.258 1273.5 644.191 1273.5H644.689C646.622 1273.5 648.189 1271.93 648.189 1270C648.189 1268.07 646.622 1266.5 644.689 1266.5H644.191ZM660.623 1266.5C658.69 1266.5 657.123 1268.07 657.123 1270C657.123 1271.93 658.69 1273.5 660.623 1273.5H661.121C663.054 1273.5 664.621 1271.93 664.621 1270C664.621 1268.07 663.054 1266.5 661.121 1266.5H660.623ZM677.055 1266.5C675.122 1266.5 673.555 1268.07 673.555 1270C673.555 1271.93 675.122 1273.5 677.055 1273.5H677.553C679.486 1273.5 681.053 1271.93 681.053 1270C681.053 1268.07 679.486 1266.5 677.553 1266.5H677.055ZM693.487 1266.5C691.554 1266.5 689.987 1268.07 689.987 1270C689.987 1271.93 691.554 1273.5 693.487 1273.5H693.985C695.918 1273.5 697.485 1271.93 697.485 1270C697.485 1268.07 695.918 1266.5 693.985 1266.5H693.487ZM709.919 1266.5C707.986 1266.5 706.419 1268.07 706.419 1270C706.419 1271.93 707.986 1273.5 709.919 1273.5H710.417C712.35 1273.5 713.917 1271.93 713.917 1270C713.917 1268.07 712.35 1266.5 710.417 1266.5H709.919ZM726.351 1266.5C724.418 1266.5 722.851 1268.07 722.851 1270C722.851 1271.93 724.418 1273.5 726.351 1273.5H726.849C728.782 1273.5 730.349 1271.93 730.349 1270C730.349 1268.07 728.782 1266.5 726.849 1266.5H726.351ZM742.783 1266.5C740.85 1266.5 739.283 1268.07 739.283 1270C739.283 1271.93 740.85 1273.5 742.783 1273.5H743.281C745.214 1273.5 746.781 1271.93 746.781 1270C746.781 1268.07 745.214 1266.5 743.281 1266.5H742.783ZM759.215 1266.5C757.282 1266.5 755.715 1268.07 755.715 1270C755.715 1271.93 757.282 1273.5 759.215 1273.5H759.713C761.646 1273.5 763.213 1271.93 763.213 1270C763.213 1268.07 761.646 1266.5 759.713 1266.5H759.215ZM775.647 1266.5C773.714 1266.5 772.147 1268.07 772.147 1270C772.147 1271.93 773.714 1273.5 775.647 1273.5H776.145C778.078 1273.5 779.645 1271.93 779.645 1270C779.645 1268.07 778.078 1266.5 776.145 1266.5H775.647ZM792.079 1266.5C790.146 1266.5 788.579 1268.07 788.579 1270C788.579 1271.93 790.146 1273.5 792.079 1273.5H792.577C794.51 1273.5 796.077 1271.93 796.077 1270C796.077 1268.07 794.51 1266.5 792.577 1266.5H792.079ZM808.511 1266.5C806.578 1266.5 805.011 1268.07 805.011 1270C805.011 1271.93 806.578 1273.5 808.511 1273.5H809.009C810.942 1273.5 812.509 1271.93 812.509 1270C812.509 1268.07 810.942 1266.5 809.009 1266.5H808.511ZM824.943 1266.5C823.01 1266.5 821.443 1268.07 821.443 1270C821.443 1271.93 823.01 1273.5 824.943 1273.5H825.441C827.374 1273.5 828.941 1271.93 828.941 1270C828.941 1268.07 827.374 1266.5 825.441 1266.5H824.943ZM841.375 1266.5C839.442 1266.5 837.875 1268.07 837.875 1270C837.875 1271.93 839.442 1273.5 841.375 1273.5H841.873C843.806 1273.5 845.373 1271.93 845.373 1270C845.373 1268.07 843.806 1266.5 841.873 1266.5H841.375ZM857.807 1266.5C855.874 1266.5 854.307 1268.07 854.307 1270C854.307 1271.93 855.874 1273.5 857.807 1273.5H858.305C860.238 1273.5 861.805 1271.93 861.805 1270C861.805 1268.07 860.238 1266.5 858.305 1266.5H857.807ZM874.239 1266.5C872.306 1266.5 870.739 1268.07 870.739 1270C870.739 1271.93 872.306 1273.5 874.239 1273.5H874.737C876.67 1273.5 878.237 1271.93 878.237 1270C878.237 1268.07 876.67 1266.5 874.737 1266.5H874.239ZM890.671 1266.5C888.738 1266.5 887.171 1268.07 887.171 1270C887.171 1271.93 888.738 1273.5 890.671 1273.5H891.169C893.102 1273.5 894.669 1271.93 894.669 1270C894.669 1268.07 893.102 1266.5 891.169 1266.5H890.671ZM907.103 1266.5C905.17 1266.5 903.603 1268.07 903.603 1270C903.603 1271.93 905.17 1273.5 907.103 1273.5H907.601C909.534 1273.5 911.101 1271.93 911.101 1270C911.101 1268.07 909.534 1266.5 907.601 1266.5H907.103ZM923.535 1266.5C921.602 1266.5 920.035 1268.07 920.035 1270C920.035 1271.93 921.602 1273.5 923.535 1273.5H924.033C925.966 1273.5 927.533 1271.93 927.533 1270C927.533 1268.07 925.966 1266.5 924.033 1266.5H923.535ZM939.967 1266.5C938.034 1266.5 936.467 1268.07 936.467 1270C936.467 1271.93 938.034 1273.5 939.967 1273.5H940.465C942.398 1273.5 943.965 1271.93 943.965 1270C943.965 1268.07 942.398 1266.5 940.465 1266.5H939.967ZM956.399 1266.5C954.466 1266.5 952.899 1268.07 952.899 1270C952.899 1271.93 954.466 1273.5 956.399 1273.5H956.897C958.83 1273.5 960.397 1271.93 960.397 1270C960.397 1268.07 958.83 1266.5 956.897 1266.5H956.399ZM972.831 1266.5C970.898 1266.5 969.331 1268.07 969.331 1270C969.331 1271.93 970.898 1273.5 972.831 1273.5H973.329C975.262 1273.5 976.829 1271.93 976.829 1270C976.829 1268.07 975.262 1266.5 973.329 1266.5H972.831ZM989.263 1266.5C987.33 1266.5 985.763 1268.07 985.763 1270C985.763 1271.93 987.33 1273.5 989.263 1273.5H989.761C991.694 1273.5 993.261 1271.93 993.261 1270C993.261 1268.07 991.694 1266.5 989.761 1266.5H989.263ZM1005.69 1266.5C1003.76 1266.5 1002.19 1268.07 1002.19 1270C1002.19 1271.93 1003.76 1273.5 1005.69 1273.5H1006.19C1008.13 1273.5 1009.69 1271.93 1009.69 1270C1009.69 1268.07 1008.13 1266.5 1006.19 1266.5H1005.69ZM1022.13 1266.5C1020.19 1266.5 1018.63 1268.07 1018.63 1270C1018.63 1271.93 1020.19 1273.5 1022.13 1273.5H1022.62C1024.56 1273.5 1026.12 1271.93 1026.12 1270C1026.12 1268.07 1024.56 1266.5 1022.62 1266.5H1022.13ZM1038.56 1266.5C1036.63 1266.5 1035.06 1268.07 1035.06 1270C1035.06 1271.93 1036.63 1273.5 1038.56 1273.5H1039.06C1040.99 1273.5 1042.56 1271.93 1042.56 1270C1042.56 1268.07 1040.99 1266.5 1039.06 1266.5H1038.56ZM1054.99 1266.5C1053.06 1266.5 1051.49 1268.07 1051.49 1270C1051.49 1271.93 1053.06 1273.5 1054.99 1273.5H1055.49C1057.42 1273.5 1058.99 1271.93 1058.99 1270C1058.99 1268.07 1057.42 1266.5 1055.49 1266.5H1054.99ZM1071.42 1266.5C1069.49 1266.5 1067.92 1268.07 1067.92 1270C1067.92 1271.93 1069.49 1273.5 1071.42 1273.5H1071.92C1073.85 1273.5 1075.42 1271.93 1075.42 1270C1075.42 1268.07 1073.85 1266.5 1071.92 1266.5H1071.42ZM1087.85 1266.5C1085.92 1266.5 1084.35 1268.07 1084.35 1270C1084.35 1271.93 1085.92 1273.5 1087.85 1273.5H1088.35C1090.29 1273.5 1091.85 1271.93 1091.85 1270C1091.85 1268.07 1090.29 1266.5 1088.35 1266.5H1087.85ZM1104.29 1266.5C1102.35 1266.5 1100.79 1268.07 1100.79 1270C1100.79 1271.93 1102.35 1273.5 1104.29 1273.5H1104.78C1106.72 1273.5 1108.28 1271.93 1108.28 1270C1108.28 1268.07 1106.72 1266.5 1104.78 1266.5H1104.29ZM1120.72 1266.5C1118.79 1266.5 1117.22 1268.07 1117.22 1270C1117.22 1271.93 1118.79 1273.5 1120.72 1273.5H1121.22C1123.15 1273.5 1124.72 1271.93 1124.72 1270C1124.72 1268.07 1123.15 1266.5 1121.22 1266.5H1120.72ZM1137.15 1266.5C1135.22 1266.5 1133.65 1268.07 1133.65 1270C1133.65 1271.93 1135.22 1273.5 1137.15 1273.5H1137.65C1139.58 1273.5 1141.15 1271.93 1141.15 1270C1141.15 1268.07 1139.58 1266.5 1137.65 1266.5H1137.15ZM1153.58 1266.5C1151.65 1266.5 1150.08 1268.07 1150.08 1270C1150.08 1271.93 1151.65 1273.5 1153.58 1273.5H1154.08C1156.01 1273.5 1157.58 1271.93 1157.58 1270C1157.58 1268.07 1156.01 1266.5 1154.08 1266.5H1153.58ZM1170.01 1266.5C1168.08 1266.5 1166.51 1268.07 1166.51 1270C1166.51 1271.93 1168.08 1273.5 1170.01 1273.5H1170.51C1172.45 1273.5 1174.01 1271.93 1174.01 1270C1174.01 1268.07 1172.45 1266.5 1170.51 1266.5H1170.01ZM1186.45 1266.5C1184.51 1266.5 1182.95 1268.07 1182.95 1270C1182.95 1271.93 1184.51 1273.5 1186.45 1273.5H1186.94C1188.88 1273.5 1190.44 1271.93 1190.44 1270C1190.44 1268.07 1188.88 1266.5 1186.94 1266.5H1186.45ZM1202.88 1266.5C1200.95 1266.5 1199.38 1268.07 1199.38 1270C1199.38 1271.93 1200.95 1273.5 1202.88 1273.5H1203.38C1205.31 1273.5 1206.88 1271.93 1206.88 1270C1206.88 1268.07 1205.31 1266.5 1203.38 1266.5H1202.88ZM1219.31 1266.5C1217.38 1266.5 1215.81 1268.07 1215.81 1270C1215.81 1271.93 1217.38 1273.5 1219.31 1273.5H1219.81C1221.74 1273.5 1223.31 1271.93 1223.31 1270C1223.31 1268.07 1221.74 1266.5 1219.81 1266.5H1219.31ZM1235.74 1266.5C1233.81 1266.5 1232.24 1268.07 1232.24 1270C1232.24 1271.93 1233.81 1273.5 1235.74 1273.5H1236.24C1238.17 1273.5 1239.74 1271.93 1239.74 1270C1239.74 1268.07 1238.17 1266.5 1236.24 1266.5H1235.74ZM1252.17 1266.5C1250.24 1266.5 1248.67 1268.07 1248.67 1270C1248.67 1271.93 1250.24 1273.5 1252.17 1273.5H1252.67C1254.61 1273.5 1256.17 1271.93 1256.17 1270C1256.17 1268.07 1254.61 1266.5 1252.67 1266.5H1252.17ZM1268.61 1266.5C1266.67 1266.5 1265.11 1268.07 1265.11 1270C1265.11 1271.93 1266.67 1273.5 1268.61 1273.5H1269.1C1271.04 1273.5 1272.6 1271.93 1272.6 1270C1272.6 1268.07 1271.04 1266.5 1269.1 1266.5H1268.61ZM1285.04 1266.5C1283.11 1266.5 1281.54 1268.07 1281.54 1270C1281.54 1271.93 1283.11 1273.5 1285.04 1273.5H1285.54C1287.47 1273.5 1289.04 1271.93 1289.04 1270C1289.04 1268.07 1287.47 1266.5 1285.54 1266.5H1285.04ZM1301.47 1266.5C1299.54 1266.5 1297.97 1268.07 1297.97 1270C1297.97 1271.93 1299.54 1273.5 1301.47 1273.5H1301.97C1303.9 1273.5 1305.47 1271.93 1305.47 1270C1305.47 1268.07 1303.9 1266.5 1301.97 1266.5H1301.47ZM1317.9 1266.5C1315.97 1266.5 1314.4 1268.07 1314.4 1270C1314.4 1271.93 1315.97 1273.5 1317.9 1273.5H1318.4C1320.33 1273.5 1321.9 1271.93 1321.9 1270C1321.9 1268.07 1320.33 1266.5 1318.4 1266.5H1317.9ZM1334.33 1266.5C1332.4 1266.5 1330.83 1268.07 1330.83 1270C1330.83 1271.93 1332.4 1273.5 1334.33 1273.5H1334.83C1336.77 1273.5 1338.33 1271.93 1338.33 1270C1338.33 1268.07 1336.77 1266.5 1334.83 1266.5H1334.33ZM1350.77 1266.5C1348.83 1266.5 1347.27 1268.07 1347.27 1270C1347.27 1271.93 1348.83 1273.5 1350.77 1273.5H1351.26C1353.2 1273.5 1354.76 1271.93 1354.76 1270C1354.76 1268.07 1353.2 1266.5 1351.26 1266.5H1350.77ZM1367.2 1266.5C1365.27 1266.5 1363.7 1268.07 1363.7 1270C1363.7 1271.93 1365.27 1273.5 1367.2 1273.5H1367.7C1369.63 1273.5 1371.2 1271.93 1371.2 1270C1371.2 1268.07 1369.63 1266.5 1367.7 1266.5H1367.2ZM1383.63 1266.5C1381.7 1266.5 1380.13 1268.07 1380.13 1270C1380.13 1271.93 1381.7 1273.5 1383.63 1273.5H1383.88C1385.81 1273.5 1387.38 1271.93 1387.38 1270C1387.38 1268.07 1385.81 1266.5 1383.88 1266.5H1383.63ZM1841.22 1129.07C1827.55 1118.09 1820.93 1133.77 1820.93 1133.77C1842.88 1151.8 1815.13 1180.67 1815.13 1180.67C1821.89 1152.84 1798.98 1146.05 1789.04 1153.63C1779.09 1161.2 1778.68 1171.53 1786.83 1177.66C1794.97 1183.81 1805.19 1178.06 1803.39 1171.65C1801.6 1165.25 1791.52 1164.6 1791.52 1164.6C1791.52 1164.6 1797.04 1157.03 1805.6 1161.99C1814.16 1166.95 1810.02 1186.55 1810.02 1186.55C1785.45 1206.14 1784.69 1231.94 1784.69 1231.95C1784.68 1231.95 1757.42 1232.67 1736.71 1255.92C1736.71 1255.92 1716 1259.84 1710.76 1251.74C1705.51 1243.64 1713.52 1238.41 1713.52 1238.41C1713.52 1238.41 1714.21 1247.95 1720.97 1249.65C1727.74 1251.34 1733.81 1241.68 1727.32 1233.97C1720.83 1226.26 1709.93 1226.66 1701.92 1236.06C1693.92 1245.47 1701.09 1267.15 1730.5 1260.75C1730.5 1260.75 1699.99 1287.01 1680.94 1266.24C1680.94 1266.24 1664.37 1272.51 1675.97 1285.44C1675.97 1285.44 1666.03 1291.32 1659.81 1300.34C1659.81 1300.34 1680.11 1310.53 1716.56 1283.87C1716.56 1283.87 1718.42 1304.84 1739.95 1294.26C1739.95 1294.26 1724.22 1280.94 1731.88 1270.16C1735.96 1264.43 1745.42 1256.81 1755.51 1250.87C1768.01 1243.52 1784.21 1245.22 1794.63 1255.07C1803.04 1263.03 1805.39 1275.46 1799.46 1285.22C1799.07 1285.85 1798.66 1286.47 1798.22 1287.08C1791.1 1296.81 1783.03 1288.78 1783.03 1288.78C1783.03 1288.78 1789.86 1282.31 1783.45 1275.45C1777.03 1268.59 1759.84 1276.23 1764.81 1289.17C1769.78 1302.1 1789.24 1303.67 1800.42 1294.65C1800.42 1294.65 1798.35 1298.96 1806.01 1307C1806.01 1307 1804.71 1277.54 1820.58 1265.91C1832.87 1250.89 1864 1252.13 1864 1252.13C1855.51 1244.88 1850.95 1246.84 1850.95 1246.84C1860.48 1236.26 1858.82 1217.84 1845.16 1213.14C1831.49 1208.43 1823.41 1224.7 1830.66 1230.77C1837.91 1236.84 1844.74 1230.38 1844.74 1230.38C1844.74 1230.38 1853.23 1238.02 1842.95 1244.75C1842.3 1245.17 1841.65 1245.56 1840.98 1245.92C1830.67 1251.54 1817.54 1249.32 1809.12 1241.35C1798.71 1231.5 1796.91 1216.17 1804.69 1204.33C1810.96 1194.79 1819.01 1185.83 1825.07 1181.98C1836.46 1174.73 1850.54 1189.62 1850.54 1189.62C1861.72 1169.24 1839.56 1167.47 1839.56 1167.47C1867.73 1132.99 1856.96 1113.78 1856.96 1113.78C1847.43 1119.66 1841.22 1129.07 1841.22 1129.07ZM1753.5 1183.86C1746.12 1190.06 1725.47 1175.91 1725.46 1175.9C1725.47 1175.91 1740.42 1195.45 1733.87 1202.43C1727.32 1209.41 1709.1 1214.11 1709.1 1214.11C1709.1 1214.11 1732.71 1221.56 1753.21 1202.16C1773.71 1182.76 1765.84 1160.42 1765.84 1160.42C1765.84 1160.42 1760.87 1177.66 1753.5 1183.86ZM1769.5 1217.57C1769.4 1217.33 1765.33 1206.85 1769.16 1200.66C1772.54 1195.16 1781.95 1194.82 1784.21 1194.82C1784.53 1194.82 1784.7 1194.83 1784.7 1194.83C1784.7 1194.83 1767.08 1204.18 1778.06 1225.67C1755.35 1215.29 1745.46 1231.96 1745.46 1231.96C1745.46 1231.96 1744.99 1220.91 1751.62 1217.25C1758.17 1213.63 1769.24 1217.49 1769.49 1217.57L1769.5 1217.58L1769.5 1217.57ZM1814.71 1203.01C1806.52 1215.47 1816.73 1225.14 1816.73 1225.14C1816.73 1225.14 1816.37 1200.4 1839.84 1200.66C1839.84 1200.66 1833.73 1195.88 1826.82 1195.88C1822.7 1195.88 1818.29 1197.58 1814.71 1203.01ZM1515.89 1266.87C1512.16 1264.31 1509.74 1260.15 1509.74 1255.45C1509.74 1247.66 1516.42 1241.33 1524.66 1241.33C1532.9 1241.33 1539.59 1247.66 1539.59 1255.45C1539.59 1260.15 1537.16 1264.31 1533.44 1266.87H1544.38L1559.06 1252.98L1573.74 1266.87H1586.56C1587.74 1263.69 1590.94 1261.4 1594.71 1261.4V1266.87H1648.44V1272.27H1594.71V1277.75C1590.94 1277.75 1587.74 1275.46 1586.56 1272.27H1573.74L1559.06 1286.17L1544.38 1272.27H1533.44C1537.16 1274.84 1539.59 1279 1539.59 1283.69C1539.59 1291.49 1532.9 1297.82 1524.66 1297.82C1516.42 1297.82 1509.74 1291.49 1509.74 1283.69C1509.74 1279 1512.16 1274.84 1515.89 1272.27H1504.95L1490.26 1286.17L1475.58 1272.27H1462.77C1461.59 1275.46 1458.38 1277.75 1454.61 1277.75V1272.27H1400.88V1266.87H1454.61V1261.4C1458.38 1261.4 1461.59 1263.69 1462.77 1266.87H1475.58L1490.26 1252.98L1504.95 1266.87H1515.89ZM1754.11 1260.36C1738.75 1269.4 1751.62 1284.14 1751.62 1284.14C1751.35 1261.93 1777.49 1262.27 1777.49 1262.27C1777.49 1262.27 1772.29 1257.35 1764.52 1257.35C1761.4 1257.35 1757.88 1258.14 1754.11 1260.36ZM1860.84 1304.01H1821.6C1821.6 1283.5 1839.17 1266.87 1860.84 1266.87V1304.01ZM26.9955 840.221V893.952H21.2054C21.2054 897.717 23.631 900.888 26.9955 902.073V914.921L12.3077 929.604L26.9955 944.29V955.251C24.2812 951.519 19.8937 949.079 14.9242 949.079C6.68124 949.079 0 955.76 0 964.003C0 972.244 6.68124 978.922 14.9242 978.922C19.8937 978.922 24.2812 976.483 26.9955 972.751V983.714L12.3077 998.397L26.9955 1013.08V1025.93C23.631 1027.12 21.2054 1030.29 21.2054 1034.05H26.9955V1064.23V1087.78H32.6969V1064.23V1034.05H38.4848C38.4848 1030.29 36.0614 1027.12 32.6969 1025.93V1013.08L47.3802 998.397L32.6969 983.714V972.751C35.409 976.483 39.7987 978.922 44.7682 978.922C53.0089 978.922 59.6902 972.244 59.6902 964.003C59.6902 955.76 53.0089 949.079 44.7682 949.079C39.7987 949.079 35.409 951.519 32.6969 955.251V944.29L47.3802 929.604L32.6969 914.921V902.073C36.0614 900.888 38.4848 897.717 38.4848 893.952H32.6969V840.221H32.8451V466.777H32.6969V443.221V413.045H38.4848C38.4848 409.28 36.0614 406.109 32.6969 404.927V392.076L47.3802 377.391L32.6969 362.707V351.744C35.409 355.477 39.7987 357.915 44.7682 357.915C53.0089 357.915 59.6902 351.238 59.6902 342.997C59.6902 334.754 53.0089 328.073 44.7682 328.073C39.7987 328.073 35.409 330.512 32.6969 334.245V323.284L47.3802 308.598L32.6969 293.915V281.066C36.0614 279.882 38.4848 276.711 38.4848 272.946H32.6969V219.214H26.9955V272.946H21.2054C21.2054 276.711 23.631 279.882 26.9955 281.066V293.915L12.3077 308.598L26.9955 323.284V334.245C24.2812 330.512 19.8937 328.073 14.9242 328.073C6.68124 328.073 0 334.754 0 342.997C0 351.238 6.68124 357.915 14.9242 357.915C19.8937 357.915 24.2812 355.477 26.9955 351.744V362.707L12.3077 377.391L26.9955 392.076V404.927C23.631 406.109 21.2054 409.28 21.2054 413.045H26.9955V443.221V466.777H26.8451V840.221H26.9955ZM1831.31 893.952V840.221H1831.15V466.777H1831.31V443.221V413.045H1825.52C1825.52 409.28 1827.94 406.109 1831.31 404.927V392.076L1816.62 377.391L1831.31 362.707V351.744C1828.59 355.477 1824.2 357.915 1819.23 357.915C1810.99 357.915 1804.31 351.238 1804.31 342.997C1804.31 334.754 1810.99 328.073 1819.23 328.073C1824.2 328.073 1828.59 330.512 1831.31 334.245V323.284L1816.62 308.598L1831.31 293.915V281.066C1827.94 279.882 1825.52 276.711 1825.52 272.946H1831.31V219.214H1837.01V272.946H1842.79C1842.79 276.711 1840.37 279.882 1837.01 281.066V293.915L1851.69 308.598L1837.01 323.284V334.245C1839.72 330.512 1844.11 328.073 1849.08 328.073C1857.32 328.073 1864 334.754 1864 342.997C1864 351.238 1857.32 357.915 1849.08 357.915C1844.11 357.915 1839.72 355.477 1837.01 351.744V362.707L1851.69 377.391L1837.01 392.076V404.927C1840.37 406.109 1842.79 409.28 1842.79 413.045H1837.01V443.221V466.777H1837.15V840.221H1837.01V893.952H1842.79C1842.79 897.717 1840.37 900.888 1837.01 902.073V914.921L1851.69 929.604L1837.01 944.29V955.251C1839.72 951.519 1844.11 949.079 1849.08 949.079C1857.32 949.079 1864 955.76 1864 964.003C1864 972.244 1857.32 978.922 1849.08 978.922C1844.11 978.922 1839.72 976.483 1837.01 972.751V983.714L1851.69 998.397L1837.01 1013.08V1025.93C1840.37 1027.12 1842.79 1030.29 1842.79 1034.05H1837.01V1064.23V1087.78H1831.31V1064.23V1034.05H1825.52C1825.52 1030.29 1827.94 1027.12 1831.31 1025.93V1013.08L1816.62 998.397L1831.31 983.714V972.751C1828.59 976.483 1824.2 978.922 1819.23 978.922C1810.99 978.922 1804.31 972.244 1804.31 964.003C1804.31 955.76 1810.99 949.079 1819.23 949.079C1824.2 949.079 1828.59 951.519 1831.31 955.251V944.29L1816.62 929.604L1831.31 914.921V902.073C1827.94 900.888 1825.52 897.717 1825.52 893.952H1831.31ZM0 54.8679C0 54.8679 31.1329 56.1092 43.4201 41.0854C59.2969 29.4582 57.9829 6.10352e-05 57.9829 6.10352e-05C65.6462 8.03461 63.5752 12.3434 63.5752 12.3434C74.7576 3.33002 94.2239 4.89825 99.1934 17.8311C104.165 30.7661 86.9766 38.4069 80.5568 31.5468C74.137 24.6911 80.9706 18.2248 80.9706 18.2248C80.9706 18.2248 72.8958 10.1901 65.7849 19.9221C65.3416 20.5286 64.9278 21.1505 64.5459 21.7807C58.6081 31.5407 60.9587 43.9658 69.3744 51.9273C79.7862 61.7819 95.988 63.4811 108.493 56.1241C118.58 50.1889 128.046 42.5718 132.122 36.8389C139.781 26.0616 124.045 12.7371 124.045 12.7371C145.582 2.15326 147.444 23.1209 147.444 23.1209C183.892 -3.52789 204.188 6.66217 204.188 6.66217C197.973 15.6756 188.032 21.5547 188.032 21.5547C199.63 34.4876 183.062 40.7582 183.062 40.7582C164.012 19.9864 133.5 46.2459 133.5 46.2459C162.907 39.8439 170.086 61.53 162.08 70.935C154.071 80.3421 143.164 80.7357 136.676 73.0259C130.188 65.3182 136.262 55.6508 143.027 57.3503C149.79 59.0475 150.481 68.5837 150.481 68.5837C150.481 68.5837 158.49 63.3586 153.243 55.2617C147.999 47.1603 127.289 51.0798 127.289 51.0798C106.582 74.3318 79.3156 75.0502 79.3156 75.0502C79.3156 75.0524 78.554 100.854 53.9796 120.449C53.9796 120.449 49.8399 140.044 58.3989 145.009C66.9579 149.974 72.4798 142.397 72.4798 142.397C72.4798 142.397 62.4022 141.743 60.6063 135.341C58.8127 128.939 69.0312 123.191 77.1741 129.333C85.3194 135.47 84.9056 145.792 74.9645 153.368C65.0256 160.947 42.1084 154.153 48.8738 126.328C48.8738 126.328 21.1235 155.199 43.0746 173.226C43.0746 173.226 36.4479 188.904 22.7808 177.928C22.7808 177.928 16.5678 187.335 7.04042 193.214C7.04042 193.214 -3.72595 174.011 24.438 139.521C24.438 139.521 2.28012 137.757 13.4625 117.379C13.4625 117.379 27.5434 132.272 38.9326 125.02C44.9887 121.163 53.0407 112.208 59.3105 102.663C67.0852 90.827 65.2893 75.4977 54.8776 65.6454C46.4641 57.6817 33.3335 55.4553 23.0195 61.0742C22.3557 61.4377 21.6987 61.829 21.0531 62.2507C10.7709 68.9775 19.2594 76.6185 19.2594 76.6185C19.2594 76.6185 26.093 70.152 33.3426 76.2291C40.5898 82.3018 32.5128 98.5668 18.8457 93.8643C5.17858 89.1618 3.52135 70.7392 13.0488 60.1597C13.0488 60.1597 8.49079 62.1174 0 54.8679ZM3.15989 40.1215V2.98798H42.4017C42.4017 23.4951 24.8313 40.1215 3.15989 40.1215ZM324.414 23.3015C324.414 27.9974 326.835 32.1579 330.563 34.7242H319.624L304.941 20.8298L290.258 34.7242H277.443C276.266 31.5362 273.06 29.2473 269.289 29.2473V34.7242H215.557V40.1215H269.289V45.5984C273.06 45.5984 276.266 43.3117 277.443 40.1215H290.258L304.941 54.018L319.624 40.1215H330.561C326.835 42.69 324.414 46.8505 324.414 51.5444C324.414 59.3445 331.098 65.6646 339.338 65.6646C347.579 65.6646 354.26 59.3445 354.26 51.5444C354.26 46.8505 351.839 42.69 348.113 40.1215H359.05L373.736 54.018L388.421 40.1215H401.231C402.411 43.3117 405.619 45.5984 409.388 45.5984V40.1215H463.12V34.7242H409.388V29.2473C405.619 29.2473 402.411 31.5362 401.231 34.7242H388.421L373.736 20.8298L359.05 34.7242H348.113C351.839 32.1579 354.26 27.9974 354.26 23.3015C354.26 15.5034 347.579 9.18341 339.338 9.18341C331.098 9.18341 324.414 15.5034 324.414 23.3015ZM109.894 46.6375C96.7269 54.3925 86.5106 44.7274 86.5106 44.7274C86.5106 44.7274 112.654 45.0693 112.379 22.8605C112.379 22.8605 125.25 37.5919 109.894 46.6375ZM85.9423 81.321C96.9178 102.811 79.2974 112.169 79.2974 112.169C79.2974 112.169 90.9799 112.61 94.8468 106.339C98.6498 100.17 94.6334 89.7626 94.5044 89.4284L94.5013 89.4201C94.5013 89.4222 105.754 93.404 112.381 89.747C119.005 86.09 118.541 75.0331 118.541 75.0331C118.541 75.0331 108.653 91.7068 85.9423 81.321ZM49.2852 103.988C39.7283 118.519 24.163 106.339 24.163 106.339C47.6303 106.602 47.2665 81.863 47.2665 81.863C47.2665 81.863 57.4851 91.5281 49.2852 103.988ZM110.789 104.838C90.2888 124.237 98.159 146.577 98.159 146.577C98.159 146.577 103.128 129.333 110.505 123.135C117.882 116.94 138.528 131.086 138.54 131.095L138.535 131.088C138.22 130.674 123.648 111.471 130.126 104.567C136.676 97.586 154.901 92.8834 154.901 92.8834C154.901 92.8834 150.447 91.4787 143.73 91.4787C134.98 91.4787 122.388 93.8624 110.789 104.838ZM476.62 37.0001C476.62 35.0671 478.187 33.5001 480.12 33.5001H480.369C482.302 33.5001 483.869 35.0671 483.869 37.0001C483.869 38.933 482.302 40.5001 480.369 40.5001H480.12C478.187 40.5001 476.62 38.933 476.62 37.0001ZM492.803 37.0001C492.803 35.0671 494.37 33.5001 496.303 33.5001H496.801C498.734 33.5001 500.301 35.0671 500.301 37.0001C500.301 38.933 498.734 40.5001 496.801 40.5001H496.303C494.37 40.5001 492.803 38.933 492.803 37.0001ZM509.235 37.0001C509.235 35.0671 510.802 33.5001 512.735 33.5001H513.233C515.166 33.5001 516.733 35.0671 516.733 37.0001C516.733 38.933 515.166 40.5001 513.233 40.5001H512.735C510.802 40.5001 509.235 38.933 509.235 37.0001ZM525.667 37.0001C525.667 35.0671 527.234 33.5001 529.167 33.5001H529.665C531.598 33.5001 533.165 35.0671 533.165 37.0001C533.165 38.933 531.598 40.5001 529.665 40.5001H529.167C527.234 40.5001 525.667 38.933 525.667 37.0001ZM542.099 37.0001C542.099 35.0671 543.666 33.5001 545.599 33.5001H546.097C548.03 33.5001 549.597 35.0671 549.597 37.0001C549.597 38.933 548.03 40.5001 546.097 40.5001H545.599C543.666 40.5001 542.099 38.933 542.099 37.0001ZM558.531 37.0001C558.531 35.0671 560.098 33.5001 562.031 33.5001H562.529C564.462 33.5001 566.029 35.0671 566.029 37.0001C566.029 38.933 564.462 40.5001 562.529 40.5001H562.031C560.098 40.5001 558.531 38.933 558.531 37.0001ZM574.963 37.0001C574.963 35.0671 576.53 33.5001 578.463 33.5001H578.961C580.894 33.5001 582.461 35.0671 582.461 37.0001C582.461 38.933 580.894 40.5001 578.961 40.5001H578.463C576.53 40.5001 574.963 38.933 574.963 37.0001ZM591.395 37.0001C591.395 35.0671 592.962 33.5001 594.895 33.5001H595.393C597.326 33.5001 598.893 35.0671 598.893 37.0001C598.893 38.933 597.326 40.5001 595.393 40.5001H594.895C592.962 40.5001 591.395 38.933 591.395 37.0001ZM607.827 37.0001C607.827 35.0671 609.394 33.5001 611.327 33.5001H611.825C613.758 33.5001 615.325 35.0671 615.325 37.0001C615.325 38.933 613.758 40.5001 611.825 40.5001H611.327C609.394 40.5001 607.827 38.933 607.827 37.0001ZM624.259 37.0001C624.259 35.0671 625.826 33.5001 627.759 33.5001H628.257C630.19 33.5001 631.757 35.0671 631.757 37.0001C631.757 38.933 630.19 40.5001 628.257 40.5001H627.759C625.826 40.5001 624.259 38.933 624.259 37.0001ZM640.691 37.0001C640.691 35.0671 642.258 33.5001 644.191 33.5001H644.689C646.622 33.5001 648.189 35.0671 648.189 37.0001C648.189 38.933 646.622 40.5001 644.689 40.5001H644.191C642.258 40.5001 640.691 38.933 640.691 37.0001ZM657.123 37.0001C657.123 35.0671 658.69 33.5001 660.623 33.5001H661.121C663.054 33.5001 664.621 35.0671 664.621 37.0001C664.621 38.933 663.054 40.5001 661.121 40.5001H660.623C658.69 40.5001 657.123 38.933 657.123 37.0001ZM673.555 37.0001C673.555 35.0671 675.122 33.5001 677.055 33.5001H677.553C679.486 33.5001 681.053 35.0671 681.053 37.0001C681.053 38.933 679.486 40.5001 677.553 40.5001H677.055C675.122 40.5001 673.555 38.933 673.555 37.0001ZM689.987 37.0001C689.987 35.0671 691.554 33.5001 693.487 33.5001H693.985C695.918 33.5001 697.485 35.0671 697.485 37.0001C697.485 38.933 695.918 40.5001 693.985 40.5001H693.487C691.554 40.5001 689.987 38.933 689.987 37.0001ZM706.419 37.0001C706.419 35.0671 707.986 33.5001 709.919 33.5001H710.417C712.35 33.5001 713.917 35.0671 713.917 37.0001C713.917 38.933 712.35 40.5001 710.417 40.5001H709.919C707.986 40.5001 706.419 38.933 706.419 37.0001ZM722.851 37.0001C722.851 35.0671 724.418 33.5001 726.351 33.5001H726.849C728.782 33.5001 730.349 35.0671 730.349 37.0001C730.349 38.933 728.782 40.5001 726.849 40.5001H726.351C724.418 40.5001 722.851 38.933 722.851 37.0001ZM739.283 37.0001C739.283 35.0671 740.85 33.5001 742.783 33.5001H743.281C745.214 33.5001 746.781 35.0671 746.781 37.0001C746.781 38.933 745.214 40.5001 743.281 40.5001H742.783C740.85 40.5001 739.283 38.933 739.283 37.0001ZM755.715 37.0001C755.715 35.0671 757.282 33.5001 759.215 33.5001H759.713C761.646 33.5001 763.213 35.0671 763.213 37.0001C763.213 38.933 761.646 40.5001 759.713 40.5001H759.215C757.282 40.5001 755.715 38.933 755.715 37.0001ZM772.147 37.0001C772.147 35.0671 773.714 33.5001 775.647 33.5001H776.145C778.078 33.5001 779.645 35.0671 779.645 37.0001C779.645 38.933 778.078 40.5001 776.145 40.5001H775.647C773.714 40.5001 772.147 38.933 772.147 37.0001ZM788.579 37.0001C788.579 35.0671 790.146 33.5001 792.079 33.5001H792.577C794.51 33.5001 796.077 35.0671 796.077 37.0001C796.077 38.933 794.51 40.5001 792.577 40.5001H792.079C790.146 40.5001 788.579 38.933 788.579 37.0001ZM805.011 37.0001C805.011 35.0671 806.578 33.5001 808.511 33.5001H809.009C810.942 33.5001 812.509 35.0671 812.509 37.0001C812.509 38.933 810.942 40.5001 809.009 40.5001H808.511C806.578 40.5001 805.011 38.933 805.011 37.0001ZM821.443 37.0001C821.443 35.0671 823.01 33.5001 824.943 33.5001H825.441C827.374 33.5001 828.941 35.0671 828.941 37.0001C828.941 38.933 827.374 40.5001 825.441 40.5001H824.943C823.01 40.5001 821.443 38.933 821.443 37.0001ZM837.875 37.0001C837.875 35.0671 839.442 33.5001 841.375 33.5001H841.873C843.806 33.5001 845.373 35.0671 845.373 37.0001C845.373 38.933 843.806 40.5001 841.873 40.5001H841.375C839.442 40.5001 837.875 38.933 837.875 37.0001ZM854.307 37.0001C854.307 35.0671 855.874 33.5001 857.807 33.5001H858.305C860.238 33.5001 861.805 35.0671 861.805 37.0001C861.805 38.933 860.238 40.5001 858.305 40.5001H857.807C855.874 40.5001 854.307 38.933 854.307 37.0001ZM870.739 37.0001C870.739 35.0671 872.306 33.5001 874.239 33.5001H874.737C876.67 33.5001 878.237 35.0671 878.237 37.0001C878.237 38.933 876.67 40.5001 874.737 40.5001H874.239C872.306 40.5001 870.739 38.933 870.739 37.0001ZM887.171 37.0001C887.171 35.0671 888.738 33.5001 890.671 33.5001H891.169C893.102 33.5001 894.669 35.0671 894.669 37.0001C894.669 38.933 893.102 40.5001 891.169 40.5001H890.671C888.738 40.5001 887.171 38.933 887.171 37.0001ZM903.603 37.0001C903.603 35.0671 905.17 33.5001 907.103 33.5001H907.601C909.534 33.5001 911.101 35.0671 911.101 37.0001C911.101 38.933 909.534 40.5001 907.601 40.5001H907.103C905.17 40.5001 903.603 38.933 903.603 37.0001ZM920.035 37.0001C920.035 35.0671 921.602 33.5001 923.535 33.5001H924.033C925.966 33.5001 927.533 35.0671 927.533 37.0001C927.533 38.933 925.966 40.5001 924.033 40.5001H923.535C921.602 40.5001 920.035 38.933 920.035 37.0001ZM936.467 37.0001C936.467 35.0671 938.034 33.5001 939.967 33.5001H940.465C942.398 33.5001 943.965 35.0671 943.965 37.0001C943.965 38.933 942.398 40.5001 940.465 40.5001H939.967C938.034 40.5001 936.467 38.933 936.467 37.0001ZM952.899 37.0001C952.899 35.0671 954.466 33.5001 956.399 33.5001H956.897C958.83 33.5001 960.397 35.0671 960.397 37.0001C960.397 38.933 958.83 40.5001 956.897 40.5001H956.399C954.466 40.5001 952.899 38.933 952.899 37.0001ZM969.331 37.0001C969.331 35.0671 970.898 33.5001 972.831 33.5001H973.329C975.262 33.5001 976.829 35.0671 976.829 37.0001C976.829 38.933 975.262 40.5001 973.329 40.5001H972.831C970.898 40.5001 969.331 38.933 969.331 37.0001ZM985.763 37.0001C985.763 35.0671 987.33 33.5001 989.263 33.5001H989.761C991.694 33.5001 993.261 35.0671 993.261 37.0001C993.261 38.933 991.694 40.5001 989.761 40.5001H989.263C987.33 40.5001 985.763 38.933 985.763 37.0001ZM1002.19 37.0001C1002.19 35.0671 1003.76 33.5001 1005.69 33.5001H1006.19C1008.13 33.5001 1009.69 35.0671 1009.69 37.0001C1009.69 38.933 1008.13 40.5001 1006.19 40.5001H1005.69C1003.76 40.5001 1002.19 38.933 1002.19 37.0001ZM1018.63 37.0001C1018.63 35.0671 1020.19 33.5001 1022.13 33.5001H1022.62C1024.56 33.5001 1026.12 35.0671 1026.12 37.0001C1026.12 38.933 1024.56 40.5001 1022.62 40.5001H1022.13C1020.19 40.5001 1018.63 38.933 1018.63 37.0001ZM1035.06 37.0001C1035.06 35.0671 1036.63 33.5001 1038.56 33.5001H1039.06C1040.99 33.5001 1042.56 35.0671 1042.56 37.0001C1042.56 38.933 1040.99 40.5001 1039.06 40.5001H1038.56C1036.63 40.5001 1035.06 38.933 1035.06 37.0001ZM1051.49 37.0001C1051.49 35.0671 1053.06 33.5001 1054.99 33.5001H1055.49C1057.42 33.5001 1058.99 35.0671 1058.99 37.0001C1058.99 38.933 1057.42 40.5001 1055.49 40.5001H1054.99C1053.06 40.5001 1051.49 38.933 1051.49 37.0001ZM1067.92 37.0001C1067.92 35.0671 1069.49 33.5001 1071.42 33.5001H1071.92C1073.85 33.5001 1075.42 35.0671 1075.42 37.0001C1075.42 38.933 1073.85 40.5001 1071.92 40.5001H1071.42C1069.49 40.5001 1067.92 38.933 1067.92 37.0001ZM1084.35 37.0001C1084.35 35.0671 1085.92 33.5001 1087.85 33.5001H1088.35C1090.29 33.5001 1091.85 35.0671 1091.85 37.0001C1091.85 38.933 1090.29 40.5001 1088.35 40.5001H1087.85C1085.92 40.5001 1084.35 38.933 1084.35 37.0001ZM1100.79 37.0001C1100.79 35.0671 1102.35 33.5001 1104.29 33.5001H1104.78C1106.72 33.5001 1108.28 35.0671 1108.28 37.0001C1108.28 38.933 1106.72 40.5001 1104.78 40.5001H1104.29C1102.35 40.5001 1100.79 38.933 1100.79 37.0001ZM1117.22 37.0001C1117.22 35.0671 1118.79 33.5001 1120.72 33.5001H1121.22C1123.15 33.5001 1124.72 35.0671 1124.72 37.0001C1124.72 38.933 1123.15 40.5001 1121.22 40.5001H1120.72C1118.79 40.5001 1117.22 38.933 1117.22 37.0001ZM1133.65 37.0001C1133.65 35.0671 1135.22 33.5001 1137.15 33.5001H1137.65C1139.58 33.5001 1141.15 35.0671 1141.15 37.0001C1141.15 38.933 1139.58 40.5001 1137.65 40.5001H1137.15C1135.22 40.5001 1133.65 38.933 1133.65 37.0001ZM1150.08 37.0001C1150.08 35.0671 1151.65 33.5001 1153.58 33.5001H1154.08C1156.01 33.5001 1157.58 35.0671 1157.58 37.0001C1157.58 38.933 1156.01 40.5001 1154.08 40.5001H1153.58C1151.65 40.5001 1150.08 38.933 1150.08 37.0001ZM1166.51 37.0001C1166.51 35.0671 1168.08 33.5001 1170.01 33.5001H1170.51C1172.45 33.5001 1174.01 35.0671 1174.01 37.0001C1174.01 38.933 1172.45 40.5001 1170.51 40.5001H1170.01C1168.08 40.5001 1166.51 38.933 1166.51 37.0001ZM1182.95 37.0001C1182.95 35.0671 1184.51 33.5001 1186.45 33.5001H1186.94C1188.88 33.5001 1190.44 35.0671 1190.44 37.0001C1190.44 38.933 1188.88 40.5001 1186.94 40.5001H1186.45C1184.51 40.5001 1182.95 38.933 1182.95 37.0001ZM1199.38 37.0001C1199.38 35.0671 1200.95 33.5001 1202.88 33.5001H1203.38C1205.31 33.5001 1206.88 35.0671 1206.88 37.0001C1206.88 38.933 1205.31 40.5001 1203.38 40.5001H1202.88C1200.95 40.5001 1199.38 38.933 1199.38 37.0001ZM1215.81 37.0001C1215.81 35.0671 1217.38 33.5001 1219.31 33.5001H1219.81C1221.74 33.5001 1223.31 35.0671 1223.31 37.0001C1223.31 38.933 1221.74 40.5001 1219.81 40.5001H1219.31C1217.38 40.5001 1215.81 38.933 1215.81 37.0001ZM1232.24 37.0001C1232.24 35.0671 1233.81 33.5001 1235.74 33.5001H1236.24C1238.17 33.5001 1239.74 35.0671 1239.74 37.0001C1239.74 38.933 1238.17 40.5001 1236.24 40.5001H1235.74C1233.81 40.5001 1232.24 38.933 1232.24 37.0001ZM1248.67 37.0001C1248.67 35.0671 1250.24 33.5001 1252.17 33.5001H1252.67C1254.61 33.5001 1256.17 35.0671 1256.17 37.0001C1256.17 38.933 1254.61 40.5001 1252.67 40.5001H1252.17C1250.24 40.5001 1248.67 38.933 1248.67 37.0001ZM1265.11 37.0001C1265.11 35.0671 1266.67 33.5001 1268.61 33.5001H1269.1C1271.04 33.5001 1272.6 35.0671 1272.6 37.0001C1272.6 38.933 1271.04 40.5001 1269.1 40.5001H1268.61C1266.67 40.5001 1265.11 38.933 1265.11 37.0001ZM1281.54 37.0001C1281.54 35.0671 1283.11 33.5001 1285.04 33.5001H1285.54C1287.47 33.5001 1289.04 35.0671 1289.04 37.0001C1289.04 38.933 1287.47 40.5001 1285.54 40.5001H1285.04C1283.11 40.5001 1281.54 38.933 1281.54 37.0001ZM1297.97 37.0001C1297.97 35.0671 1299.54 33.5001 1301.47 33.5001H1301.97C1303.9 33.5001 1305.47 35.0671 1305.47 37.0001C1305.47 38.933 1303.9 40.5001 1301.97 40.5001H1301.47C1299.54 40.5001 1297.97 38.933 1297.97 37.0001ZM1314.4 37.0001C1314.4 35.0671 1315.97 33.5001 1317.9 33.5001H1318.4C1320.33 33.5001 1321.9 35.0671 1321.9 37.0001C1321.9 38.933 1320.33 40.5001 1318.4 40.5001H1317.9C1315.97 40.5001 1314.4 38.933 1314.4 37.0001ZM1330.83 37.0001C1330.83 35.0671 1332.4 33.5001 1334.33 33.5001H1334.83C1336.77 33.5001 1338.33 35.0671 1338.33 37.0001C1338.33 38.933 1336.77 40.5001 1334.83 40.5001H1334.33C1332.4 40.5001 1330.83 38.933 1330.83 37.0001ZM1347.27 37.0001C1347.27 35.0671 1348.83 33.5001 1350.77 33.5001H1351.26C1353.2 33.5001 1354.76 35.0671 1354.76 37.0001C1354.76 38.933 1353.2 40.5001 1351.26 40.5001H1350.77C1348.83 40.5001 1347.27 38.933 1347.27 37.0001ZM1363.7 37.0001C1363.7 35.0671 1365.27 33.5001 1367.2 33.5001H1367.7C1369.63 33.5001 1371.2 35.0671 1371.2 37.0001C1371.2 38.933 1369.63 40.5001 1367.7 40.5001H1367.2C1365.27 40.5001 1363.7 38.933 1363.7 37.0001ZM1380.13 37.0001C1380.13 35.0671 1381.7 33.5001 1383.63 33.5001H1383.88C1385.81 33.5001 1387.38 35.0671 1387.38 37.0001C1387.38 38.933 1385.81 40.5001 1383.88 40.5001H1383.63C1381.7 40.5001 1380.13 38.933 1380.13 37.0001ZM1764.81 17.8311C1769.78 4.89825 1789.24 3.33002 1800.42 12.3434C1800.42 12.3434 1798.35 8.03461 1806.01 6.10352e-05C1806.01 6.10352e-05 1804.71 29.4582 1820.58 41.0854C1832.87 56.1092 1864 54.8679 1864 54.8679C1855.51 62.1174 1850.95 60.1597 1850.95 60.1597C1860.48 70.7392 1858.82 89.1618 1845.16 93.8643C1831.49 98.5668 1823.41 82.3018 1830.66 76.2291C1837.91 70.152 1844.74 76.6185 1844.74 76.6185C1844.74 76.6185 1853.23 68.9775 1842.95 62.2507C1842.75 62.1201 1842.55 61.9924 1842.35 61.8675L1842.21 61.7819C1842.12 61.7292 1842.03 61.6769 1841.95 61.6252C1841.63 61.4348 1841.3 61.2512 1840.98 61.0742C1830.67 55.4553 1817.54 57.6817 1809.12 65.6454C1798.71 75.4977 1796.91 90.827 1804.69 102.663C1810.96 112.208 1819.01 121.163 1825.07 125.02C1836.46 132.272 1850.54 117.379 1850.54 117.379C1861.72 137.757 1839.56 139.521 1839.56 139.521C1867.73 174.011 1856.96 193.214 1856.96 193.214C1847.43 187.335 1841.22 177.928 1841.22 177.928C1827.55 188.904 1820.93 173.226 1820.93 173.226C1842.88 155.199 1815.13 126.328 1815.13 126.328C1821.89 154.153 1798.98 160.947 1789.04 153.368C1779.09 145.792 1778.68 135.47 1786.83 129.333C1794.97 123.191 1805.19 128.939 1803.39 135.341C1801.6 141.743 1791.52 142.397 1791.52 142.397C1791.52 142.397 1797.04 149.974 1805.6 145.009C1814.16 140.044 1810.02 120.449 1810.02 120.449C1785.45 100.854 1784.69 75.0524 1784.69 75.0502C1784.68 75.0502 1757.42 74.3318 1736.71 51.0798C1736.71 51.0798 1716 47.1603 1710.76 55.2617C1705.51 63.3586 1713.52 68.5837 1713.52 68.5837C1713.52 68.5837 1714.21 59.0475 1720.97 57.3503C1727.74 55.6508 1733.81 65.3182 1727.32 73.0259C1720.83 80.7357 1709.93 80.3421 1701.92 70.935C1693.92 61.53 1701.09 39.8439 1730.5 46.2459C1730.5 46.2459 1699.99 19.9864 1680.94 40.7582C1680.94 40.7582 1664.37 34.4876 1675.97 21.5547C1675.97 21.5547 1666.03 15.6756 1659.81 6.66217C1659.81 6.66217 1680.11 -3.52789 1716.56 23.1209C1716.56 23.1209 1718.42 2.15326 1739.95 12.7371C1739.95 12.7371 1724.22 26.0616 1731.88 36.8389C1735.96 42.5718 1745.42 50.1889 1755.51 56.1241C1768.01 63.4811 1784.21 61.7819 1794.63 51.9273C1803.04 43.9658 1805.39 31.5407 1799.46 21.7807C1799.24 21.4268 1799.02 21.0756 1798.78 20.7282C1798.6 20.457 1798.41 20.188 1798.22 19.9221C1791.1 10.1901 1783.03 18.2248 1783.03 18.2248C1783.03 18.2248 1789.86 24.6911 1783.45 31.5468C1777.03 38.4069 1759.84 30.7661 1764.81 17.8311ZM1860.84 40.1215C1839.17 40.1215 1821.6 23.4951 1821.6 2.98798H1860.84V40.1215ZM1509.74 23.3015C1509.74 27.9974 1512.16 32.1579 1515.89 34.7242H1504.95L1490.26 20.8298L1475.58 34.7242H1462.77C1461.59 31.5362 1458.38 29.2473 1454.61 29.2473V34.7242H1400.88V40.1215H1454.61V45.5984C1458.38 45.5984 1461.59 43.3117 1462.77 40.1215H1475.58L1490.26 54.018L1504.95 40.1215H1515.89C1512.16 42.69 1509.74 46.8505 1509.74 51.5444C1509.74 59.3445 1516.42 65.6646 1524.66 65.6646C1532.9 65.6646 1539.59 59.3445 1539.59 51.5444C1539.59 46.8505 1537.16 42.69 1533.44 40.1215H1544.38L1559.06 54.018L1573.74 40.1215H1586.56C1587.74 43.3117 1590.94 45.5984 1594.71 45.5984V40.1215H1648.44V34.7242H1594.71V29.2473C1590.94 29.2473 1587.74 31.5362 1586.56 34.7242H1573.74L1559.06 20.8298L1544.38 34.7242H1533.44C1537.16 32.1579 1539.59 27.9974 1539.59 23.3015C1539.59 15.5034 1532.9 9.18341 1524.66 9.18341C1516.42 9.18341 1509.74 15.5034 1509.74 23.3015ZM1777.49 44.7274C1777.49 44.7274 1767.27 54.3925 1754.11 46.6375C1738.75 37.5919 1751.62 22.8605 1751.62 22.8605C1751.35 45.0693 1777.49 44.7274 1777.49 44.7274ZM1751.62 89.747C1758.25 93.404 1769.5 89.4222 1769.5 89.4201L1769.5 89.4284C1769.37 89.7637 1765.35 100.171 1769.16 106.339C1773.02 112.61 1784.7 112.169 1784.7 112.169C1784.7 112.169 1767.08 102.811 1778.06 81.321C1755.35 91.7068 1745.46 75.0331 1745.46 75.0331C1745.46 75.0331 1744.99 86.09 1751.62 89.747ZM1839.84 106.339C1839.84 106.339 1824.27 118.519 1814.71 103.988C1806.52 91.5281 1816.73 81.863 1816.73 81.863C1816.73 81.863 1816.37 106.602 1839.84 106.339ZM1709.1 92.8834C1709.1 92.8834 1727.32 97.586 1733.87 104.567C1740.35 111.471 1725.78 130.672 1725.47 131.088L1725.46 131.095C1725.47 131.086 1746.12 116.94 1753.5 123.135C1760.87 129.333 1765.84 146.577 1765.84 146.577C1765.84 146.577 1773.71 124.237 1753.21 104.838C1741.61 93.8644 1729.02 91.4809 1720.27 91.4787C1713.55 91.4787 1709.1 92.8834 1709.1 92.8834Z" fill="url(#paint0_linear_16_30839)"/>
<defs>
<linearGradient id="paint0_linear_16_30839" x1="-644.382" y1="-32624.5" x2="3569.95" y2="-32551.8" gradientUnits="userSpaceOnUse">
<stop offset="0.192458" stop-color="#9C6B32"/>
<stop offset="0.402404" stop-color="#DBBB96"/>
<stop offset="0.614201" stop-color="#D0A674"/>
<stop offset="0.807016" stop-color="#9C6B32"/>
</linearGradient>
</defs>
</svg>
