<svg version="1.1" id="Layer_1" xmlns="http://www.w3.org/2000/svg" xmlns:xlink="http://www.w3.org/1999/xlink" x="0px" y="0px"
	 width="100%" viewBox="0 0 512 512" enable-background="new 0 0 512 512" xml:space="preserve">
<path fill="#FFFFFF" opacity="1.000000" stroke="none" 
	d="
M333.000000,513.000000 
	C222.026962,513.000000 111.553917,513.000000 1.040437,513.000000 
	C1.040437,342.401947 1.040437,171.803864 1.040437,1.102891 
	C171.556381,1.102891 342.112854,1.102891 512.834656,1.102891 
	C512.834656,171.666534 512.834656,342.333252 512.834656,513.000000 
	C453.137177,513.000000 393.318573,513.000000 333.000000,513.000000 
M182.915359,346.978943 
	C182.915359,346.978943 182.645264,347.013580 182.572006,346.527191 
	C182.073181,346.181488 181.574341,345.835754 180.568787,344.924225 
	C178.720627,344.145813 176.872467,343.367401 174.867676,341.981720 
	C173.572617,342.191864 172.277542,342.402008 170.341537,342.921021 
	C168.315475,344.000336 166.289398,345.079651 163.644882,346.087128 
	C163.446045,346.719574 163.247208,347.351990 163.013855,348.815796 
	C163.386887,351.144012 163.759918,353.472198 164.117233,356.531281 
	C164.860779,356.885345 165.604324,357.239410 166.257645,357.881592 
	C166.257645,357.881592 166.396500,357.613464 166.139587,358.334381 
	C165.029877,359.430847 163.836258,360.457611 162.844666,361.652100 
	C162.321442,362.282379 162.150513,363.205048 162.093170,364.604279 
	C162.116119,364.825348 162.139084,365.046417 161.984024,365.873322 
	C162.521698,368.465485 163.583038,370.352936 167.475769,369.519043 
	C168.645905,369.886353 169.816040,370.253662 171.257797,371.251587 
	C174.596039,372.551392 177.602295,372.334015 180.494507,368.900269 
	C181.396744,368.280273 182.298981,367.660278 183.873322,366.908905 
	C184.210083,365.896271 184.546829,364.883636 184.954697,363.128601 
	C184.634079,361.739136 184.313461,360.349701 184.439102,358.639404 
	C183.991959,358.093018 183.544800,357.546631 182.460464,356.764618 
	C181.312714,356.034760 180.164963,355.304932 178.949310,354.052490 
	C178.313095,354.022430 177.676865,353.992371 176.267136,353.988983 
	C175.529083,353.783630 174.791031,353.578278 174.013794,352.752350 
	C173.337936,351.530792 172.662094,350.309265 172.794144,348.948486 
	C174.151794,349.315186 175.602798,349.487732 176.848724,350.086823 
	C179.973938,351.589478 182.486816,351.682281 183.821854,347.389130 
	C183.644196,347.082794 183.400330,347.015625 182.915359,346.978943 
M255.030060,274.796265 
	C255.159042,275.314545 255.288010,275.832794 255.062531,276.148834 
	C255.062531,276.148834 255.396118,276.383942 254.590515,276.236206 
	C254.023117,278.149139 253.455704,280.062042 252.204559,282.069031 
	C250.427567,281.689941 248.378891,281.746735 246.928940,280.842957 
	C243.694031,278.826660 240.776505,278.349731 237.180862,280.094757 
	C234.691559,281.302856 233.411880,282.471954 232.463486,285.341461 
	C231.324387,288.787872 227.825684,291.398346 226.332092,294.802277 
	C225.236008,297.300293 224.596146,301.220734 225.845764,303.155731 
	C226.929993,304.834656 230.944687,305.050262 233.679886,305.103241 
	C236.030884,305.148743 238.404022,304.050659 239.562515,303.760254 
	C240.778885,300.540192 241.287796,298.077728 242.558594,296.106445 
	C244.206985,293.549438 246.462112,291.383545 248.876602,288.556946 
	C249.769135,289.236237 251.364792,290.450653 253.009384,291.702332 
	C254.066788,289.682159 255.030640,287.840698 256.829773,286.013977 
	C258.221466,286.010132 259.613190,286.006287 261.451874,286.529175 
	C265.140930,287.404266 263.558777,284.480133 264.500549,282.640228 
	C265.333374,281.422302 266.166229,280.204376 267.582275,278.921234 
	C267.914398,278.629333 268.246521,278.337433 268.578613,278.045502 
	C268.122681,277.704620 267.666748,277.363739 266.939087,276.893829 
	C266.939087,276.893829 266.639923,276.862335 266.772217,276.278320 
	C267.152740,275.838684 267.533295,275.399078 268.664490,274.907318 
	C269.008423,274.091858 269.352356,273.276367 269.690826,272.166779 
	C269.690826,272.166779 269.912720,271.973602 270.606689,272.023346 
	C271.069489,272.010254 271.532318,271.997192 272.678589,271.887634 
	C275.352539,271.630890 278.026459,271.374115 280.868286,271.845367 
	C281.880524,275.389679 283.162537,278.518585 287.880157,277.854248 
	C290.972992,277.418762 294.343506,277.910095 297.170227,276.858643 
	C302.238403,274.973511 308.739410,273.489288 311.517792,269.603790 
	C317.672180,260.997070 320.812042,250.785614 317.975525,239.770630 
	C317.321350,237.230301 316.523193,234.721802 315.982910,232.158279 
	C313.743774,221.533844 311.678406,210.877853 306.140900,201.287460 
	C304.225494,197.970245 302.700989,194.427322 301.034760,190.627380 
	C301.034760,190.627380 301.017548,190.265457 301.408295,189.773453 
	C301.744965,189.526886 302.081665,189.280319 302.919739,188.989792 
	C303.057648,188.364578 303.195557,187.739380 303.267212,186.406952 
	C303.351166,185.943054 303.435150,185.479156 304.162628,184.787781 
	C305.580231,180.257309 305.580231,180.257309 310.641418,178.247681 
	C311.112366,178.180634 311.583282,178.113586 312.369904,178.542236 
	C313.259674,178.182465 314.149414,177.822708 315.693298,177.269318 
	C316.144684,177.214096 316.596069,177.158890 317.490997,177.648239 
	C318.181946,179.564316 319.918427,182.766861 319.396759,183.190842 
	C315.579010,186.293610 316.707855,190.460785 317.292603,193.867706 
	C317.964020,197.779678 317.723358,200.551651 313.967133,202.294556 
	C318.112549,207.751312 320.718872,208.588272 325.091034,205.822601 
	C325.091034,205.822601 325.174957,205.567215 325.644379,205.786377 
	C326.002289,205.337143 326.360168,204.887909 326.957794,203.720642 
	C327.019012,203.475845 327.080231,203.231064 327.580200,202.665588 
	C327.339264,202.117157 327.098358,201.568726 326.633942,200.391190 
	C326.667114,199.950241 326.700287,199.509308 327.353455,198.682312 
	C327.349060,196.952164 326.778015,194.958984 327.437958,193.537201 
	C330.359131,187.243912 327.552856,181.204224 326.712982,174.700073 
	C326.543091,174.680679 326.373169,174.661270 327.007233,174.570312 
	C328.343201,174.370865 329.679169,174.171432 331.309967,174.454391 
	C331.820435,173.622513 332.330902,172.790634 332.570953,171.314636 
	C332.302979,170.670181 332.034973,170.025742 331.840210,168.637848 
	C330.225616,167.759125 328.610992,166.880402 327.000000,166.000000 
	C327.000000,166.000000 326.998535,166.003204 326.952576,165.298767 
	C324.604492,163.901871 322.256409,162.504959 319.950439,161.037521 
	C319.950439,161.037521 319.898621,161.114929 319.923828,160.379501 
	C317.495453,158.053345 315.058838,155.735733 312.641815,153.397827 
	C311.177948,151.981888 309.877625,149.494995 308.273285,149.289536 
	C302.697266,148.575439 299.150299,145.060837 295.625275,141.411148 
	C291.926117,137.581146 284.276123,135.648087 279.319458,137.318680 
	C276.045380,138.422211 272.671478,139.236801 269.326813,140.122391 
	C256.701324,143.465347 244.061050,146.753006 231.444397,150.128891 
	C226.821518,151.365860 225.265167,155.611938 228.637421,158.700043 
	C231.768234,161.567062 235.535812,163.814316 239.263870,165.904922 
	C240.308044,166.490448 242.203537,165.557907 243.960800,165.357986 
	C243.960800,165.357986 244.152267,165.526215 244.319656,166.214828 
	C244.947571,166.423386 245.575485,166.631927 246.719391,166.917999 
	C247.396805,167.027283 248.074203,167.136551 249.008286,168.024078 
	C251.114410,171.162476 249.118515,173.258972 246.754105,174.462006 
	C240.000122,177.898514 236.240173,183.019241 235.980148,190.716370 
	C235.894867,193.240555 234.830414,194.885391 231.570221,194.507004 
	C229.262726,194.239212 226.821320,195.125336 224.102097,195.468109 
	C224.102097,195.468109 223.847275,195.244873 223.911148,194.495651 
	C222.212784,190.443314 219.040665,188.817032 214.804153,189.063950 
	C212.038864,189.225113 209.231628,189.255203 206.527390,189.778870 
	C189.414932,193.092682 182.629456,203.654099 178.632111,218.334045 
	C177.007050,224.301987 175.947830,230.586014 175.794540,236.755127 
	C175.558258,246.264481 170.289322,255.882660 176.056976,265.348267 
	C176.559006,266.172150 176.542725,267.298431 176.984436,268.174713 
	C179.886078,273.931244 183.308731,279.099457 190.900497,279.481964 
	C190.900497,279.481964 191.089859,279.634338 191.340317,280.333435 
	C195.676483,283.627930 199.849594,283.256683 204.375000,279.336792 
	C205.194458,279.033356 206.013901,278.729950 206.947510,279.165894 
	C209.281387,279.037415 211.615265,278.908905 214.665405,278.740997 
	C214.977722,279.745392 215.381668,281.466095 216.060989,283.070190 
	C216.465134,284.024506 217.157776,285.342041 217.969391,285.556915 
	C222.153503,286.664581 227.347946,284.200562 229.883423,280.207336 
	C231.478317,277.695526 232.906265,275.048004 234.758850,272.742371 
	C235.641983,271.643250 237.436920,270.458099 238.648651,270.616211 
	C240.999283,270.922943 243.366943,271.900482 245.478439,273.055481 
	C248.879257,274.915741 250.902054,273.900818 252.831223,270.806976 
	C255.762680,266.105682 259.045258,261.623322 262.178680,257.047974 
	C262.471527,257.615723 262.764404,258.183472 263.057251,258.751221 
	C266.241272,258.218292 269.425293,257.685364 272.712036,257.312561 
	C272.712036,257.312561 272.861115,257.430695 272.387817,258.128235 
	C272.642609,259.196777 272.720123,260.350830 273.186340,261.317383 
	C274.438873,263.914062 272.821075,263.996979 270.229248,263.895081 
	C268.145111,263.599976 266.060944,263.304871 263.242798,263.021454 
	C262.497375,264.002136 261.751984,264.982788 260.722595,266.556305 
	C259.479462,268.042023 258.236359,269.527710 256.347717,271.066010 
	C255.900970,272.041962 255.454239,273.017944 255.030060,274.796265 
M189.911880,358.057343 
	C193.962387,358.029175 198.012878,358.001007 202.817703,357.879028 
	C205.095718,352.837555 204.178757,351.117065 199.090195,351.013855 
	C196.277100,350.956787 193.437500,350.798004 190.658585,351.113922 
	C189.439285,351.252533 187.406158,352.434235 187.383850,353.190643 
	C187.337585,354.759033 188.388763,356.359772 189.911880,358.057343 
M359.606415,347.665405 
	C358.956726,344.266174 356.963196,343.108398 353.519989,343.437469 
	C350.176849,343.756958 346.779297,343.506805 343.405640,343.506805 
	C343.158905,342.817810 342.912140,342.128784 342.665405,341.439789 
	C344.790131,340.049530 346.914825,338.659302 349.880585,336.718719 
	C349.178040,335.594788 348.586548,333.347992 347.366791,332.928650 
	C342.767090,331.347412 338.035950,334.434784 336.462524,339.080719 
	C335.876709,340.810425 333.925751,342.069641 333.303497,343.797699 
	C332.776581,345.260925 333.008179,348.480347 333.348755,348.544006 
	C336.850739,349.198700 336.177765,351.790710 336.203735,354.002197 
	C336.263641,359.115295 336.222748,364.229614 336.222748,369.637604 
	C338.625488,369.637604 340.512085,369.637604 342.968567,369.637604 
	C342.968567,363.890991 342.845642,358.439636 343.054626,353.001038 
	C343.107147,351.634460 343.895996,349.921387 344.924652,349.050171 
	C346.708649,347.539062 348.943756,346.560547 351.427155,345.101685 
	C354.007996,351.853699 356.860107,359.238831 359.652435,366.646515 
	C361.643494,371.928619 361.155762,372.642151 355.966217,374.598663 
	C354.843872,375.021790 354.247131,376.839020 353.408295,378.014160 
	C354.475616,378.767303 355.491608,380.073853 356.619049,380.178375 
	C361.682068,380.647827 365.299072,378.375946 367.141113,373.591003 
	C369.948853,366.297638 372.682129,358.975525 375.422577,351.656433 
	C376.383209,349.090881 377.271851,346.498413 378.231873,343.810364 
	C373.046967,342.455566 370.540680,343.990051 369.415344,348.679840 
	C368.481354,352.572235 366.743805,356.271790 365.362183,360.056763 
	C364.886322,360.162201 364.410431,360.267639 363.934540,360.373077 
	C362.566956,356.381348 361.199371,352.389648 359.606415,347.665405 
M232.544662,350.637512 
	C225.150772,350.580963 225.150772,350.580963 226.049393,356.013397 
	C228.639908,356.317963 231.304810,356.631287 234.336182,356.987671 
	C233.158905,361.952209 230.265213,364.016266 226.130493,364.488861 
	C220.441788,365.139008 215.364594,361.141724 214.294464,355.360138 
	C212.949478,348.093506 215.975433,341.851074 221.767517,340.405426 
	C225.669083,339.431610 229.840469,339.572510 232.214874,343.142212 
	C234.880142,347.149200 237.323639,346.104950 240.347244,344.334381 
	C237.645981,335.177826 227.788651,330.997650 218.012543,334.600342 
	C208.246475,338.199310 203.934158,350.660553 208.841583,361.101257 
	C213.343018,370.678162 223.594345,373.186646 233.349182,367.836456 
	C235.860962,368.652344 237.680817,369.243469 239.500656,369.834625 
	C240.032822,368.070312 240.812378,366.336243 241.032898,364.533783 
	C241.293472,362.403931 241.126602,360.212952 241.048019,358.052002 
	C240.771027,350.436646 242.724594,350.673309 232.544662,350.637512 
M258.828552,369.614075 
	C260.519806,369.630737 262.270111,369.928223 263.886505,369.588593 
	C265.662231,369.215515 268.758636,368.316711 268.791412,367.541748 
	C269.043579,361.580383 269.161011,355.531189 268.380371,349.633667 
	C267.730072,344.720428 262.964355,342.349823 256.689667,342.725433 
	C251.073792,343.061615 247.906097,345.642029 246.706741,352.132477 
	C249.560730,351.171143 251.744736,350.426086 253.935349,349.700989 
	C255.321167,349.242279 256.824646,348.269897 258.078857,348.518585 
	C259.427551,348.786072 260.546539,350.211823 261.765778,351.132233 
	C260.700653,351.952972 259.750549,353.148651 258.546875,353.517975 
	C255.867004,354.340302 252.928024,354.405457 250.334793,355.403351 
	C245.880539,357.117340 243.926559,362.157654 246.187485,366.111816 
	C248.864365,370.793427 253.317764,370.997742 258.828552,369.614075 
M274.844604,352.628357 
	C274.842865,357.293335 274.922211,361.960266 274.807495,366.622467 
	C274.743683,369.216553 275.765137,370.181183 278.354218,370.110748 
	C280.761383,370.045319 282.047241,369.473907 281.948456,366.691589 
	C281.794983,362.368805 281.534393,357.952118 282.272156,353.742249 
	C282.578217,351.995575 285.341217,350.679504 286.986908,349.167603 
	C288.325958,350.781830 290.504333,352.245636 290.826355,354.042175 
	C291.464050,357.599304 291.090942,361.340240 291.107178,365.005310 
	C291.118164,367.479767 290.495758,370.074554 294.531830,370.177429 
	C298.442963,370.277130 298.279968,367.954773 298.243011,365.312012 
	C298.194061,361.814636 298.243134,358.315002 298.301056,354.817230 
	C298.350250,351.845764 299.400726,349.367676 302.729797,349.250641 
	C306.522522,349.117279 307.311035,351.939453 307.370514,355.019104 
	C307.444550,358.849823 307.471985,362.683777 307.399902,366.514099 
	C307.353516,368.977905 308.185669,370.169830 310.873505,370.136017 
	C313.376678,370.104553 314.566376,369.316833 314.501068,366.673950 
	C314.377563,361.678864 314.560760,356.673615 314.347534,351.684113 
	C314.159302,347.278351 311.861176,342.835327 307.601379,343.107391 
	C300.313995,343.572815 293.131775,343.794525 285.878357,343.065796 
	C283.732483,342.850189 281.523346,343.315552 279.364441,343.164734 
	C276.671539,342.976624 274.647003,343.268585 274.824127,346.685059 
	C274.910278,348.346710 274.841278,350.016418 274.844604,352.628357 
M157.933212,369.547699 
	C158.810654,367.128479 159.218292,365.153046 155.684891,364.370972 
	C154.541550,364.117889 153.097687,362.198090 152.975266,360.926727 
	C152.614410,357.178925 152.846451,353.374084 152.846451,350.636902 
	C155.394943,348.823730 157.102203,347.609039 158.809464,346.394379 
	C157.163101,344.970001 155.516724,343.545593 153.870361,342.121216 
	C153.159103,342.274048 152.947205,341.801849 152.923309,341.320282 
	C152.810745,339.052032 153.388123,336.561005 149.666733,336.492218 
	C146.302780,336.430084 146.019547,338.289001 145.832184,340.892029 
	C145.765228,341.822113 144.563431,342.912994 143.612564,343.491486 
	C140.759995,345.226715 141.351990,346.805573 143.312424,348.848846 
	C144.462769,350.047791 145.600388,351.624420 145.895660,353.191040 
	C146.317764,355.430573 145.941681,357.816467 145.944626,360.139832 
	C145.955322,368.598785 148.621323,370.893250 157.933212,369.547699 
M130.464432,348.509125 
	C130.462540,354.664978 130.321808,360.826935 130.593719,366.970673 
	C130.639709,368.009766 132.545837,369.846130 133.444565,369.760559 
	C134.773560,369.633942 137.036758,368.141754 137.059647,367.186890 
	C137.317566,356.421204 137.222946,345.647064 137.222946,334.997192 
	C130.775864,333.786102 130.520325,333.969421 130.463013,339.529633 
	C130.435577,342.191406 130.462509,344.853699 130.464432,348.509125 
M320.739410,348.903259 
	C320.739410,355.793427 320.739410,362.683624 320.739410,369.359833 
	C325.578583,370.699432 327.826660,369.982513 327.512024,364.999756 
	C327.157990,359.393433 327.431549,353.747040 327.445190,348.118103 
	C327.450867,345.775360 327.839294,343.441925 324.142792,343.424988 
	C320.533844,343.408478 320.641968,345.584961 320.739410,348.903259 
M326.945648,333.547028 
	C324.873505,331.548798 322.629028,331.464508 321.085205,333.853210 
	C320.372253,334.956390 320.236603,337.411682 320.974762,338.231812 
	C321.949402,339.314636 324.039490,339.393524 325.650024,339.903961 
	C326.208221,337.952271 326.766418,336.000610 326.945648,333.547028 
z"/>
<path fill="#2AB0E4" opacity="1.000000" stroke="none" 
	d="
M223.847275,195.244873 
	C223.847275,195.244873 224.102097,195.468109 224.473022,195.833557 
	C227.247192,196.461349 229.645325,196.868317 232.054825,196.953339 
	C236.026596,197.093460 238.495590,195.894485 238.508148,191.063644 
	C238.524231,184.874115 241.425903,179.782196 247.018738,176.862350 
	C250.174103,175.215027 251.363281,172.833282 252.314011,169.642761 
	C252.819778,167.945404 254.900406,165.633911 256.425262,165.510117 
	C263.235657,164.957275 270.101929,165.092712 277.013611,165.336578 
	C279.168945,169.363327 281.354919,172.982422 283.318817,176.718262 
	C284.973907,179.866669 282.658112,183.044388 278.978546,183.015488 
	C277.071777,183.000488 275.163208,183.210159 272.938782,183.261063 
	C269.059601,181.989761 265.497040,180.775726 261.618164,179.435837 
	C260.851685,179.259201 260.401520,179.208405 259.755249,178.887695 
	C258.282257,179.025909 257.005371,179.434082 255.370682,179.843445 
	C249.603409,182.212860 244.294800,184.725922 244.748611,191.967880 
	C244.817307,193.064163 245.540161,194.642654 246.415771,195.074173 
	C250.109909,196.894775 258.430664,194.404556 261.260559,190.974304 
	C261.884949,190.808350 262.227509,190.656982 262.945007,190.633026 
	C265.416168,192.138657 267.512329,193.516876 269.374451,195.129089 
	C269.028564,195.553268 268.916687,195.743454 268.485657,196.018982 
	C264.427673,198.570419 260.688904,201.036484 256.554321,203.393646 
	C254.809967,203.397614 253.461380,203.510529 251.806198,203.446564 
	C250.660141,203.488754 249.820679,203.707794 248.581268,203.900177 
	C247.131226,204.016266 246.081116,204.159042 244.590973,204.172302 
	C241.452301,204.242737 238.753677,204.442673 235.733063,204.472473 
	C234.157867,204.801575 232.904648,205.300827 231.282166,205.782639 
	C229.939041,205.880051 228.965164,205.994934 227.621185,206.044968 
	C226.503265,206.023056 225.755493,206.065979 224.673828,205.973404 
	C221.228317,204.231735 218.116699,202.625565 214.610992,200.926529 
	C213.146027,200.919418 212.075180,201.005157 210.592041,201.012894 
	C201.121902,201.242340 191.711060,208.758438 189.866776,217.462173 
	C188.123718,225.688293 186.523468,233.951233 185.131256,242.243454 
	C183.452148,252.244446 183.105484,262.105774 189.955811,270.937744 
	C187.442307,271.820282 185.147369,272.360504 182.585266,272.717224 
	C177.602997,265.713684 175.421753,258.069580 176.399887,249.923508 
	C177.641724,239.581512 179.775742,229.349899 181.202194,219.026108 
	C184.000412,198.774200 208.900314,185.522018 223.847275,195.244873 
z"/>
<path fill="#3045B4" opacity="1.000000" stroke="none" 
	d="
M182.852417,272.900726 
	C185.147369,272.360504 187.442307,271.820282 190.311707,271.050415 
	C198.430054,273.634308 201.578400,272.960938 206.073288,267.309418 
	C207.600647,265.389038 208.820526,263.224091 210.468506,260.994751 
	C213.232742,257.275696 215.709381,253.732864 218.500885,250.058060 
	C222.912231,248.043518 227.008698,246.160934 231.522278,244.367340 
	C233.624420,244.283798 235.309433,244.111282 237.410095,244.038544 
	C240.249634,243.845428 242.673508,243.552536 245.551392,243.336807 
	C251.304703,243.046173 256.604004,242.678406 262.139709,242.479736 
	C262.925842,242.555344 263.475555,242.461838 264.372681,242.539825 
	C265.481628,242.800842 266.243195,242.890366 267.266296,243.220825 
	C270.342743,245.169434 273.609161,246.422150 275.881165,248.676910 
	C281.042725,253.799408 285.715393,259.414551 290.296448,264.877319 
	C289.018127,265.503174 288.030151,266.081177 286.654755,266.563416 
	C283.357635,265.067047 280.294128,263.907349 277.591705,262.182037 
	C275.753082,261.008240 274.420166,259.042389 272.861115,257.430695 
	C272.861115,257.430695 272.712036,257.312561 272.576599,256.932739 
	C269.310974,253.556290 266.708618,249.393250 260.972412,251.225311 
	C257.524353,251.214890 254.373978,251.477463 250.749237,251.653748 
	C244.959473,251.855652 239.645737,252.334381 234.328217,252.381104 
	C228.441452,252.432846 224.260437,254.964264 221.062027,259.815704 
	C217.494553,265.226990 213.606384,270.426788 209.592468,275.810364 
	C209.148743,276.219208 208.970383,276.536316 208.843109,276.872559 
	C208.894196,276.891693 208.856430,276.789337 208.571411,276.855896 
	C208.043869,277.216888 207.801376,277.511322 207.381653,277.832825 
	C206.951904,277.964478 206.828217,278.153351 206.833359,278.426514 
	C206.013901,278.729950 205.194458,279.033356 203.673187,279.550232 
	C199.010864,279.720551 195.050354,279.677429 191.089859,279.634338 
	C191.089859,279.634338 190.900497,279.481964 190.584625,279.214447 
	C187.796631,276.931519 185.324524,274.916138 182.852417,272.900726 
z"/>
<path fill="#282C42" opacity="1.000000" stroke="none" 
	d="
M359.719116,348.031677 
	C361.199371,352.389648 362.566956,356.381348 363.934540,360.373077 
	C364.410431,360.267639 364.886322,360.162201 365.362183,360.056763 
	C366.743805,356.271790 368.481354,352.572235 369.415344,348.679840 
	C370.540680,343.990051 373.046967,342.455566 378.231873,343.810364 
	C377.271851,346.498413 376.383209,349.090881 375.422577,351.656433 
	C372.682129,358.975525 369.948853,366.297638 367.141113,373.591003 
	C365.299072,378.375946 361.682068,380.647827 356.619049,380.178375 
	C355.491608,380.073853 354.475616,378.767303 353.408295,378.014160 
	C354.247131,376.839020 354.843872,375.021790 355.966217,374.598663 
	C361.155762,372.642151 361.643494,371.928619 359.652435,366.646515 
	C356.860107,359.238831 354.007996,351.853699 351.427155,345.101685 
	C348.943756,346.560547 346.708649,347.539062 344.924652,349.050171 
	C343.895996,349.921387 343.107147,351.634460 343.054626,353.001038 
	C342.845642,358.439636 342.968567,363.890991 342.968567,369.637604 
	C340.512085,369.637604 338.625488,369.637604 336.222748,369.637604 
	C336.222748,364.229614 336.263641,359.115295 336.203735,354.002197 
	C336.177765,351.790710 336.850739,349.198700 333.348755,348.544006 
	C333.008179,348.480347 332.776581,345.260925 333.303497,343.797699 
	C333.925751,342.069641 335.876709,340.810425 336.462524,339.080719 
	C338.035950,334.434784 342.767090,331.347412 347.366791,332.928650 
	C348.586548,333.347992 349.178040,335.594788 349.880585,336.718719 
	C346.914825,338.659302 344.790131,340.049530 342.665405,341.439789 
	C342.912140,342.128784 343.158905,342.817810 343.405640,343.506805 
	C346.779297,343.506805 350.176849,343.756958 353.519989,343.437469 
	C356.963196,343.108398 358.956726,344.266174 359.719116,348.031677 
z"/>
<path fill="#282C42" opacity="1.000000" stroke="none" 
	d="
M232.994507,350.638733 
	C242.724594,350.673309 240.771027,350.436646 241.048019,358.052002 
	C241.126602,360.212952 241.293472,362.403931 241.032898,364.533783 
	C240.812378,366.336243 240.032822,368.070312 239.500656,369.834625 
	C237.680817,369.243469 235.860962,368.652344 233.349182,367.836456 
	C223.594345,373.186646 213.343018,370.678162 208.841583,361.101257 
	C203.934158,350.660553 208.246475,338.199310 218.012543,334.600342 
	C227.788651,330.997650 237.645981,335.177826 240.347244,344.334381 
	C237.323639,346.104950 234.880142,347.149200 232.214874,343.142212 
	C229.840469,339.572510 225.669083,339.431610 221.767517,340.405426 
	C215.975433,341.851074 212.949478,348.093506 214.294464,355.360138 
	C215.364594,361.141724 220.441788,365.139008 226.130493,364.488861 
	C230.265213,364.016266 233.158905,361.952209 234.336182,356.987671 
	C231.304810,356.631287 228.639908,356.317963 226.049393,356.013397 
	C225.150772,350.580963 225.150772,350.580963 232.994507,350.638733 
z"/>
<path fill="#3045B4" opacity="1.000000" stroke="none" 
	d="
M326.203247,174.641876 
	C326.373169,174.661270 326.543091,174.680679 326.625305,174.856018 
	C326.376984,175.088303 326.216339,175.164627 325.682312,175.210632 
	C324.561279,175.164001 323.813660,175.147690 323.046570,174.727554 
	C322.856567,170.066849 321.098511,167.014709 317.376282,164.521088 
	C311.173309,160.365570 304.852814,157.881104 297.158875,157.694260 
	C285.847504,157.419571 274.577911,155.710175 263.264008,155.124435 
	C258.164032,154.860397 253.206680,156.068588 249.045578,159.810349 
	C247.192001,161.477142 244.333115,162.025970 241.947510,163.072205 
	C241.964508,163.062225 241.939819,163.084671 241.890900,162.707397 
	C240.746796,161.925919 239.651596,161.521698 238.230209,161.097565 
	C235.890442,159.819885 233.876877,158.562164 232.139084,157.030960 
	C247.223801,152.725494 262.038940,148.716110 276.838318,144.649368 
	C282.064758,143.213181 286.837708,143.518204 291.366425,146.982742 
	C294.363586,149.275635 297.704468,151.205582 301.114746,152.829178 
	C302.459290,153.469315 304.410461,152.835358 306.412354,152.902573 
	C311.125763,155.720703 315.512207,158.417816 319.898621,161.114929 
	C319.898621,161.114929 319.950439,161.037521 320.042480,161.389069 
	C322.422546,163.161484 324.710541,164.582336 326.998535,166.003204 
	C326.998535,166.003204 327.000000,166.000000 327.004028,166.287354 
	C327.041687,166.954315 327.075317,167.333923 327.070374,168.147614 
	C326.755646,170.601746 326.479431,172.621811 326.203247,174.641876 
z"/>
<path fill="#ECF6FA" opacity="1.000000" stroke="none" 
	d="
M206.890442,278.796204 
	C206.828217,278.153351 206.951904,277.964478 207.689301,277.803162 
	C208.401581,277.427399 208.629013,277.108368 208.856445,276.789337 
	C208.856430,276.789337 208.894196,276.891693 209.124023,276.800110 
	C209.521851,276.378571 209.689819,276.048615 209.857803,275.718628 
	C213.606384,270.426788 217.494553,265.226990 221.062027,259.815704 
	C224.260437,254.964264 228.441452,252.432846 234.328217,252.381104 
	C239.645737,252.334381 244.959473,251.855652 250.599121,251.987244 
	C248.519302,255.957047 245.752167,259.329865 243.890396,263.144562 
	C243.148880,264.663849 244.409805,267.160431 244.759140,269.212128 
	C246.645279,268.793335 249.383209,269.018707 250.270920,267.844849 
	C254.226242,262.614502 257.652588,256.984131 261.270081,251.498306 
	C266.708618,249.393250 269.310974,253.556290 272.525208,256.852661 
	C269.425293,257.685364 266.241272,258.218292 263.057251,258.751221 
	C262.764404,258.183472 262.471527,257.615723 262.178680,257.047974 
	C259.045258,261.623322 255.762680,266.105682 252.831223,270.806976 
	C250.902054,273.900818 248.879257,274.915741 245.478439,273.055481 
	C243.366943,271.900482 240.999283,270.922943 238.648651,270.616211 
	C237.436920,270.458099 235.641983,271.643250 234.758850,272.742371 
	C232.906265,275.048004 231.478317,277.695526 229.883423,280.207336 
	C227.347946,284.200562 222.153503,286.664581 217.969391,285.556915 
	C217.157776,285.342041 216.465134,284.024506 216.060989,283.070190 
	C215.381668,281.466095 214.977722,279.745392 214.665405,278.740997 
	C211.615265,278.908905 209.281387,279.037415 206.890442,278.796204 
M234.679306,265.028351 
	C233.081970,261.998260 230.128571,261.191040 228.172318,263.487335 
	C224.453323,267.852692 221.414352,272.837952 218.479919,277.794800 
	C217.933777,278.717438 218.775665,281.497681 219.739777,282.024445 
	C221.036377,282.732910 224.035156,282.762329 224.635880,281.909180 
	C228.294739,276.712799 231.480560,271.183319 234.679306,265.028351 
M264.701965,255.572632 
	C264.989624,255.297913 265.277313,255.023193 265.564972,254.748474 
	C265.451141,254.629395 265.337280,254.510315 265.223419,254.391251 
	C264.935760,254.666290 264.648102,254.941330 264.701965,255.572632 
z"/>
<path fill="#2D438F" opacity="1.000000" stroke="none" 
	d="
M241.930511,163.082214 
	C244.333115,162.025970 247.192001,161.477142 249.045578,159.810349 
	C253.206680,156.068588 258.164032,154.860397 263.264008,155.124435 
	C274.577911,155.710175 285.847504,157.419571 297.158875,157.694260 
	C304.852814,157.881104 311.173309,160.365570 317.376282,164.521088 
	C321.098511,167.014709 322.856567,170.066849 322.846497,174.789948 
	C322.365082,175.350189 322.197540,175.553772 321.765686,175.850250 
	C319.927979,176.256943 318.487732,176.680298 317.047455,177.103668 
	C316.596069,177.158890 316.144684,177.214096 315.047607,177.300186 
	C313.619324,177.569550 312.836792,177.808060 312.054230,178.046555 
	C311.583282,178.113586 311.112366,178.180634 309.989716,178.243500 
	C307.745331,175.997177 306.596191,173.146606 304.488831,171.610489 
	C289.540497,160.714035 272.856201,157.253357 254.862259,161.511047 
	C252.505035,162.068802 250.773148,165.269333 248.751617,167.245819 
	C248.074203,167.136551 247.396805,167.027283 246.320129,166.582718 
	C245.331329,166.007034 244.741791,165.766632 244.152267,165.526215 
	C244.152267,165.526215 243.960800,165.357986 243.691803,165.086731 
	C242.925385,164.237732 242.427948,163.659973 241.930511,163.082214 
z"/>
<path fill="#282C42" opacity="1.000000" stroke="none" 
	d="
M258.425415,369.793427 
	C253.317764,370.997742 248.864365,370.793427 246.187485,366.111816 
	C243.926559,362.157654 245.880539,357.117340 250.334793,355.403351 
	C252.928024,354.405457 255.867004,354.340302 258.546875,353.517975 
	C259.750549,353.148651 260.700653,351.952972 261.765778,351.132202 
	C260.546539,350.211823 259.427551,348.786072 258.078857,348.518585 
	C256.824646,348.269897 255.321167,349.242279 253.935349,349.700989 
	C251.744736,350.426086 249.560730,351.171143 246.706741,352.132477 
	C247.906097,345.642029 251.073792,343.061615 256.689667,342.725433 
	C262.964355,342.349823 267.730072,344.720428 268.380371,349.633667 
	C269.161011,355.531189 269.043579,361.580383 268.791412,367.541748 
	C268.758636,368.316711 265.662231,369.215515 263.886505,369.588593 
	C262.270111,369.928223 260.519806,369.630737 258.425415,369.793427 
M256.213898,358.478912 
	C254.863831,359.988495 253.513763,361.498077 252.163712,363.007660 
	C253.834106,363.743805 255.555832,365.191986 257.164795,365.076019 
	C261.199677,364.785187 262.376373,361.923492 262.291473,357.854431 
	C260.211029,358.033264 258.604675,358.171356 256.213898,358.478912 
z"/>
<path fill="#2D438F" opacity="1.000000" stroke="none" 
	d="
M274.843567,352.155396 
	C274.841278,350.016418 274.910278,348.346710 274.824127,346.685059 
	C274.647003,343.268585 276.671539,342.976624 279.364441,343.164734 
	C281.523346,343.315552 283.732483,342.850189 285.878357,343.065796 
	C293.131775,343.794525 300.313995,343.572815 307.601379,343.107391 
	C311.861176,342.835327 314.159302,347.278351 314.347534,351.684113 
	C314.560760,356.673615 314.377563,361.678864 314.501068,366.673950 
	C314.566376,369.316833 313.376678,370.104553 310.873505,370.136017 
	C308.185669,370.169830 307.353516,368.977905 307.399902,366.514099 
	C307.471985,362.683777 307.444550,358.849823 307.370514,355.019104 
	C307.311035,351.939453 306.522522,349.117279 302.729797,349.250641 
	C299.400726,349.367676 298.350250,351.845764 298.301056,354.817230 
	C298.243134,358.315002 298.194061,361.814636 298.243011,365.312012 
	C298.279968,367.954773 298.442963,370.277130 294.531830,370.177429 
	C290.495758,370.074554 291.118164,367.479767 291.107178,365.005310 
	C291.090942,361.340240 291.464050,357.599304 290.826355,354.042175 
	C290.504333,352.245636 288.325958,350.781830 286.986908,349.167603 
	C285.341217,350.679504 282.578217,351.995575 282.272156,353.742249 
	C281.534393,357.952118 281.794983,362.368805 281.948456,366.691589 
	C282.047241,369.473907 280.761383,370.045319 278.354218,370.110748 
	C275.765137,370.181183 274.743683,369.216553 274.807495,366.622467 
	C274.922211,361.960266 274.842865,357.293335 274.843567,352.155396 
M282.288055,346.623230 
	C276.292267,343.616119 275.999268,343.808960 275.974121,350.865845 
	C275.959900,354.862671 275.744720,358.877319 276.060303,362.848969 
	C276.220947,364.870483 277.354553,366.814728 278.048370,368.793884 
	C278.762085,366.925751 279.811981,365.110657 280.116852,363.178009 
	C280.683258,359.587097 280.584778,355.888336 281.195038,352.308136 
	C281.765106,348.963715 284.490967,347.292236 287.460175,348.214905 
	C289.297272,348.785736 291.435089,351.143646 291.830811,353.035461 
	C292.704651,357.213104 292.423035,361.619904 292.932281,365.895172 
	C293.059723,366.965485 294.397430,367.891602 295.178925,368.883972 
	C295.795990,367.898254 296.881683,366.942017 296.945831,365.921539 
	C297.175201,362.271393 297.094788,358.599091 297.062469,354.935822 
	C297.026062,350.807983 298.731689,348.075684 303.103455,348.067688 
	C307.442810,348.059723 308.597717,351.240448 308.783905,354.839508 
	C308.947174,357.995331 308.575653,361.193542 308.925110,364.318817 
	C309.102295,365.903625 310.349487,367.368805 311.112915,368.888062 
	C311.790466,367.454956 312.944458,366.056824 313.052704,364.581940 
	C313.332275,360.771942 313.687347,356.825867 312.983765,353.129913 
	C312.412628,350.129639 311.019714,346.032288 308.768799,344.939575 
	C306.258209,343.720795 302.371429,345.397980 299.073853,345.712189 
	C297.515472,345.860657 295.540131,346.385925 294.433838,345.677856 
	C290.324860,343.047852 286.642761,343.271057 282.288055,346.623230 
z"/>
<path fill="#CDECF7" opacity="1.000000" stroke="none" 
	d="
M248.879944,167.634949 
	C250.773148,165.269333 252.505035,162.068802 254.862259,161.511047 
	C272.856201,157.253357 289.540497,160.714035 304.488831,171.610489 
	C306.596191,173.146606 307.745331,175.997177 309.671631,178.413437 
	C305.580231,180.257309 305.580231,180.257309 303.741669,184.512421 
	C304.412109,176.134201 304.249512,175.824799 297.277954,172.803162 
	C297.251923,172.817245 297.239746,172.875137 297.166321,172.586411 
	C296.787231,172.102890 296.481567,171.908081 296.130859,171.773438 
	C296.085754,171.833588 296.223999,171.774475 296.088104,171.455261 
	C295.324524,170.873505 294.696838,170.610962 293.838501,170.095520 
	C288.054535,168.221619 282.501282,166.600586 276.947998,164.979538 
	C270.101929,165.092712 263.235657,164.957275 256.425262,165.510117 
	C254.900406,165.633911 252.819778,167.945404 252.314011,169.642761 
	C251.363281,172.833282 250.174103,175.215027 247.018738,176.862350 
	C241.425903,179.782196 238.524231,184.874115 238.508148,191.063644 
	C238.495590,195.894485 236.026596,197.093460 232.054825,196.953339 
	C229.645325,196.868317 227.247192,196.461349 224.641815,195.847687 
	C226.821320,195.125336 229.262726,194.239212 231.570221,194.507004 
	C234.830414,194.885391 235.894867,193.240555 235.980148,190.716370 
	C236.240173,183.019241 240.000122,177.898514 246.754105,174.462006 
	C249.118515,173.258972 251.114410,171.162476 248.879944,167.634949 
z"/>
<path fill="#282C42" opacity="1.000000" stroke="none" 
	d="
M157.644073,369.766571 
	C148.621323,370.893250 145.955322,368.598785 145.944626,360.139832 
	C145.941681,357.816467 146.317764,355.430573 145.895660,353.191040 
	C145.600388,351.624420 144.462769,350.047791 143.312424,348.848846 
	C141.351990,346.805573 140.759995,345.226715 143.612564,343.491486 
	C144.563431,342.912994 145.765228,341.822113 145.832184,340.892029 
	C146.019547,338.289001 146.302780,336.430084 149.666733,336.492218 
	C153.388123,336.561005 152.810745,339.052032 152.923309,341.320282 
	C152.947205,341.801849 153.159103,342.274048 153.870361,342.121216 
	C155.516724,343.545593 157.163101,344.970001 158.809464,346.394379 
	C157.102203,347.609039 155.394943,348.823730 152.846451,350.636902 
	C152.846451,353.374084 152.614410,357.178925 152.975266,360.926727 
	C153.097687,362.198090 154.541550,364.117889 155.684891,364.370972 
	C159.218292,365.153046 158.810654,367.128479 157.644073,369.766571 
z"/>
<path fill="#282C42" opacity="1.000000" stroke="none" 
	d="
M183.201233,367.040283 
	C182.298981,367.660278 181.396744,368.280273 179.846649,369.125671 
	C176.461258,369.774353 173.723724,370.197662 170.986191,370.620941 
	C169.816040,370.253662 168.645905,369.886353 166.905731,369.196716 
	C164.944473,367.672089 163.553268,366.469788 162.162064,365.267517 
	C162.139084,365.046417 162.116119,364.825348 162.271851,364.041809 
	C164.576721,363.365997 166.702927,363.252716 168.839233,363.138245 
	C168.849335,363.137054 168.844330,363.159027 168.941223,363.490662 
	C171.997818,365.256104 175.012238,367.327820 177.627518,362.782837 
	C177.685425,362.253052 177.602173,362.038391 177.500549,361.508301 
	C176.977600,360.920044 176.473022,360.647186 175.657394,360.159668 
	C173.863968,359.694366 172.381607,359.443756 170.665512,358.936005 
	C169.086685,358.323730 167.741592,357.968597 166.396500,357.613464 
	C166.396500,357.613464 166.257645,357.881592 166.178787,357.468445 
	C165.444260,356.637024 164.788589,356.218719 164.132935,355.800415 
	C163.759918,353.472198 163.386887,351.144012 163.295639,348.272522 
	C163.806061,347.205811 164.034698,346.682373 164.263336,346.158936 
	C166.289398,345.079651 168.315475,344.000336 171.053436,342.900024 
	C172.851669,342.782379 173.937988,342.685699 175.024307,342.589020 
	C176.872467,343.367401 178.720627,344.145813 180.827362,345.455566 
	C181.605713,346.329132 182.125488,346.671356 182.645264,347.013580 
	C182.645264,347.013580 182.915359,346.978943 183.052658,347.244659 
	C183.335388,347.708130 183.530899,347.807709 183.776474,347.809052 
	C182.486816,351.682281 179.973938,351.589478 176.848724,350.086823 
	C175.602798,349.487732 174.151794,349.315186 172.043488,348.916504 
	C170.640350,349.575928 169.987854,350.267303 169.335358,350.958679 
	C170.907913,351.763428 172.480453,352.568176 174.052994,353.372925 
	C174.791031,353.578278 175.529083,353.783630 176.811737,354.218994 
	C177.909958,354.491028 178.463593,354.533081 179.017212,354.575104 
	C180.164963,355.304932 181.312714,356.034760 182.783173,357.160706 
	C183.401520,358.024597 183.697174,358.492401 183.992828,358.960236 
	C184.313461,360.349701 184.634079,361.739136 184.613129,363.601166 
	C183.914795,365.062592 183.558014,366.051422 183.201233,367.040283 
z"/>
<path fill="#CDECF7" opacity="1.000000" stroke="none" 
	d="
M182.585266,272.717224 
	C185.324524,274.916138 187.796631,276.931519 190.463501,279.224426 
	C183.308731,279.099457 179.886078,273.931244 176.984436,268.174713 
	C176.542725,267.298431 176.559006,266.172150 176.056976,265.348267 
	C170.289322,255.882660 175.558258,246.264481 175.794540,236.755127 
	C175.947830,230.586014 177.007050,224.301987 178.632111,218.334045 
	C182.629456,203.654099 189.414932,193.092682 206.527390,189.778870 
	C209.231628,189.255203 212.038864,189.225113 214.804153,189.063950 
	C219.040665,188.817032 222.212784,190.443314 223.879211,194.870270 
	C208.900314,185.522018 184.000412,198.774200 181.202194,219.026108 
	C179.775742,229.349899 177.641724,239.581512 176.399887,249.923508 
	C175.421753,258.069580 177.602997,265.713684 182.585266,272.717224 
z"/>
<path fill="#CDECF7" opacity="1.000000" stroke="none" 
	d="
M241.947510,163.072220 
	C242.427948,163.659973 242.925385,164.237732 243.565674,165.068604 
	C242.203537,165.557907 240.308044,166.490448 239.263870,165.904922 
	C235.535812,163.814316 231.768234,161.567062 228.637421,158.700043 
	C225.265167,155.611938 226.821518,151.365860 231.444397,150.128891 
	C244.061050,146.753006 256.701324,143.465347 269.326813,140.122391 
	C272.671478,139.236801 276.045380,138.422211 279.319458,137.318680 
	C284.276123,135.648087 291.926117,137.581146 295.625275,141.411148 
	C299.150299,145.060837 302.697266,148.575439 308.273285,149.289536 
	C309.877625,149.494995 311.177948,151.981888 312.641815,153.397827 
	C315.058838,155.735733 317.495453,158.053345 319.911224,160.747223 
	C315.512207,158.417816 311.125763,155.720703 306.247681,152.620605 
	C294.364288,142.921463 283.195984,135.391342 266.994812,142.760727 
	C256.608673,147.485031 244.740448,148.929886 233.577148,151.992645 
	C232.120560,152.392258 230.906174,153.674683 229.579605,154.548203 
	C230.340836,155.466949 231.102066,156.385696 231.863312,157.304443 
	C233.876877,158.562164 235.890442,159.819885 238.431137,161.384567 
	C239.952118,162.155899 240.945969,162.620285 241.939819,163.084671 
	C241.939819,163.084671 241.964508,163.062225 241.947510,163.072220 
z"/>
<path fill="#E8F9DA" opacity="1.000000" stroke="none" 
	d="
M300.997925,190.987488 
	C302.700989,194.427322 304.225494,197.970245 306.140900,201.287460 
	C311.678406,210.877853 313.743774,221.533844 315.982910,232.158279 
	C316.523193,234.721802 317.321350,237.230301 317.975525,239.770630 
	C320.812042,250.785614 317.672180,260.997070 311.517792,269.603790 
	C308.739410,273.489288 302.238403,274.973511 297.170227,276.858643 
	C294.343506,277.910095 290.972992,277.418762 287.880157,277.854248 
	C283.162537,278.518585 281.880524,275.389679 280.903107,271.408020 
	C280.937927,270.970703 281.195099,270.876617 281.543304,270.926453 
	C291.457886,277.420288 301.675385,276.713867 309.224487,268.269318 
	C315.192078,261.593903 317.828186,252.994492 316.118286,244.394119 
	C313.605927,231.757675 309.952179,219.298294 305.989868,207.019958 
	C303.843292,200.368134 300.210815,194.080307 292.092255,192.901001 
	C294.206573,191.891113 296.099091,191.191406 298.332336,190.377533 
	C299.144440,190.320084 299.615875,190.376816 300.214478,190.563232 
	C300.533447,190.851212 300.752197,190.949402 300.997925,190.987488 
z"/>
<path fill="#282C42" opacity="1.000000" stroke="none" 
	d="
M130.464630,348.012451 
	C130.462509,344.853699 130.435577,342.191406 130.463013,339.529633 
	C130.520325,333.969421 130.775864,333.786102 137.222946,334.997192 
	C137.222946,345.647064 137.317566,356.421204 137.059647,367.186890 
	C137.036758,368.141754 134.773560,369.633942 133.444565,369.760559 
	C132.545837,369.846130 130.639709,368.009766 130.593719,366.970673 
	C130.321808,360.826935 130.462540,354.664978 130.464630,348.012451 
z"/>
<path fill="#ECF6FA" opacity="1.000000" stroke="none" 
	d="
M255.994507,285.999237 
	C255.030640,287.840698 254.066788,289.682159 253.009384,291.702332 
	C251.364792,290.450653 249.769135,289.236237 248.876602,288.556946 
	C246.462112,291.383545 244.206985,293.549438 242.558594,296.106445 
	C241.287796,298.077728 240.778885,300.540192 239.562515,303.760254 
	C238.404022,304.050659 236.030884,305.148743 233.679886,305.103241 
	C230.944687,305.050262 226.929993,304.834656 225.845764,303.155731 
	C224.596146,301.220734 225.236008,297.300293 226.332092,294.802277 
	C227.825684,291.398346 231.324387,288.787872 232.463486,285.341461 
	C233.411880,282.471954 234.691559,281.302856 237.180862,280.094757 
	C240.776505,278.349731 243.694031,278.826660 246.928940,280.842957 
	C248.378891,281.746735 250.427567,281.689941 252.709442,282.255310 
	C253.721939,282.639923 254.229568,282.838287 254.969269,283.202271 
	C255.456116,283.648956 255.710892,283.930084 255.960373,284.508545 
	C255.968216,285.203674 255.981354,285.601440 255.994507,285.999237 
M237.074600,298.587097 
	C239.522171,295.046204 242.290497,291.671143 244.251251,287.878571 
	C244.982697,286.463806 244.389801,283.620026 243.322250,282.300171 
	C242.687103,281.514954 239.091843,281.728943 238.308228,282.694977 
	C234.461899,287.436584 230.938049,292.473694 227.733231,297.673279 
	C227.088379,298.719513 227.799881,301.548462 228.837509,302.411560 
	C229.822739,303.231049 232.218918,302.972961 233.688095,302.401062 
	C234.919250,301.921875 235.708221,300.306763 237.074600,298.587097 
z"/>
<path fill="#282C42" opacity="1.000000" stroke="none" 
	d="
M320.738586,348.460938 
	C320.641968,345.584961 320.533844,343.408478 324.142792,343.424988 
	C327.839294,343.441925 327.450867,345.775360 327.445190,348.118103 
	C327.431549,353.747040 327.157990,359.393433 327.512024,364.999756 
	C327.826660,369.982513 325.578583,370.699432 320.739410,369.359833 
	C320.739410,362.683624 320.739410,355.793427 320.738586,348.460938 
z"/>
<path fill="#6DCF33" opacity="1.000000" stroke="none" 
	d="
M255.965668,284.211182 
	C255.710892,283.930084 255.456116,283.648956 255.013077,282.863831 
	C255.015244,280.367859 255.205688,278.375885 255.396118,276.383942 
	C255.396118,276.383942 255.062531,276.148834 255.544785,276.169861 
	C256.384613,275.458954 256.742218,274.726990 257.212189,273.908813 
	C257.324585,273.822601 257.332611,273.539368 257.659210,273.419189 
	C259.832642,270.626984 261.679504,267.954956 263.668640,265.274292 
	C263.810944,265.265717 263.991364,265.039429 264.397339,265.026031 
	C266.803375,265.489471 268.803375,265.966339 270.800293,266.797058 
	C270.848969,268.091187 270.900787,269.031494 270.685181,270.121155 
	C270.249420,270.838226 270.081085,271.405914 269.912720,271.973602 
	C269.912720,271.973602 269.690826,272.166779 269.387573,272.447174 
	C268.694122,273.471527 268.303986,274.215485 267.913818,274.959442 
	C267.533295,275.399078 267.152740,275.838684 266.389679,276.638092 
	C264.828278,278.891937 263.649384,280.785980 262.225037,282.756226 
	C261.650879,283.212616 261.322144,283.592865 260.573059,283.982666 
	C258.756989,284.065216 257.361328,284.138214 255.965668,284.211182 
z"/>
<path fill="#2D438F" opacity="1.000000" stroke="none" 
	d="
M300.087311,190.433533 
	C299.615875,190.376816 299.144440,190.320084 297.958282,190.260071 
	C296.463409,190.262085 295.683258,190.267426 294.708679,190.077148 
	C293.992767,189.892258 293.471344,189.902969 292.479370,189.725647 
	C291.671387,189.522720 291.333893,189.507828 291.153870,189.362274 
	C291.311340,189.231613 291.414551,188.835617 291.628052,188.481049 
	C293.530487,185.302856 295.583344,182.623596 296.780792,179.605011 
	C297.583221,177.582184 297.172089,175.077911 297.303986,172.789078 
	C304.249512,175.824799 304.412109,176.134201 303.419922,184.626160 
	C303.435150,185.479156 303.351166,185.943054 303.073425,186.929260 
	C302.725891,187.978958 302.572113,188.506363 302.418335,189.033752 
	C302.081665,189.280319 301.744965,189.526886 300.965637,189.979828 
	C300.377747,190.268661 300.232544,190.351089 300.087311,190.433533 
z"/>
<path fill="#CDECF7" opacity="1.000000" stroke="none" 
	d="
M317.269226,177.375946 
	C318.487732,176.680298 319.927979,176.256943 321.762970,176.309952 
	C321.535217,184.229492 320.912750,191.672668 320.206055,199.409760 
	C320.088593,200.109543 320.055389,200.515411 319.746735,201.163788 
	C318.489960,204.501770 319.211548,206.177856 323.200623,205.535980 
	C324.053162,205.783340 324.536743,205.932693 325.020325,206.082047 
	C320.718872,208.588272 318.112549,207.751312 313.967133,202.294556 
	C317.723358,200.551651 317.964020,197.779678 317.292603,193.867706 
	C316.707855,190.460785 315.579010,186.293610 319.396759,183.190842 
	C319.918427,182.766861 318.181946,179.564316 317.269226,177.375946 
z"/>
<path fill="#ECF6FA" opacity="1.000000" stroke="none" 
	d="
M270.952637,269.971802 
	C270.900787,269.031494 270.848969,268.091187 270.867981,266.392914 
	C270.962036,265.092804 270.985291,264.550690 271.008545,264.008545 
	C272.821075,263.996979 274.438873,263.914062 273.186340,261.317383 
	C272.720123,260.350830 272.642609,259.196777 272.624451,257.779480 
	C274.420166,259.042389 275.753082,261.008240 277.591705,262.182037 
	C280.294128,263.907349 283.357635,265.067047 286.635284,266.879303 
	C286.979370,267.709412 286.955536,268.127869 286.561676,268.702118 
	C284.526154,269.530792 282.860626,270.203705 281.195099,270.876587 
	C281.195099,270.876617 280.937927,270.970703 280.819153,271.044006 
	C278.026459,271.374115 275.352539,271.630890 272.315979,271.632263 
	C271.619781,270.908539 271.286194,270.440155 270.952637,269.971802 
z"/>
<path fill="#282C42" opacity="1.000000" stroke="none" 
	d="
M327.135132,333.797974 
	C326.766418,336.000610 326.208221,337.952271 325.650024,339.903961 
	C324.039490,339.393524 321.949402,339.314636 320.974762,338.231812 
	C320.236603,337.411682 320.372253,334.956390 321.085205,333.853210 
	C322.629028,331.464508 324.873505,331.548798 327.135132,333.797974 
z"/>
<path fill="#282C42" opacity="1.000000" stroke="none" 
	d="
M202.063385,357.972839 
	C198.012878,358.001007 193.962387,358.029175 189.391129,357.551239 
	C188.762817,348.534332 195.155930,353.516083 198.485352,352.700836 
	C202.861343,351.629303 202.563873,355.025146 202.063385,357.972839 
z"/>
<path fill="#3045B4" opacity="1.000000" stroke="none" 
	d="
M320.022217,200.921295 
	C320.055389,200.515411 320.088593,200.109543 320.542145,199.299957 
	C321.587769,197.308319 321.986816,195.571732 322.904205,194.175751 
	C323.760651,192.872574 325.167664,191.931213 326.180664,191.292236 
	C326.018890,193.683685 326.008759,195.613480 325.828094,197.549225 
	C325.796234,197.839569 325.934967,198.123978 326.208435,198.603516 
	C326.343231,198.798676 326.733429,199.068359 326.733429,199.068359 
	C326.700287,199.509308 326.667114,199.950241 326.659393,201.044067 
	C326.837036,202.126724 326.989227,202.556503 327.141418,202.986267 
	C327.080231,203.231064 327.019012,203.475845 326.618988,204.012817 
	C325.911774,204.725739 325.543365,205.146484 325.174957,205.567215 
	C325.174957,205.567215 325.091034,205.822601 325.055664,205.952332 
	C324.536743,205.932693 324.053162,205.783340 323.120789,205.262909 
	C321.788757,203.568329 320.905457,202.244812 320.022217,200.921295 
z"/>
<path fill="#CDECF7" opacity="1.000000" stroke="none" 
	d="
M202.440552,357.925934 
	C202.563873,355.025146 202.861343,351.629303 198.485352,352.700836 
	C195.155930,353.516083 188.762817,348.534332 188.929550,357.496155 
	C188.388763,356.359772 187.337585,354.759033 187.383850,353.190643 
	C187.406158,352.434235 189.439285,351.252533 190.658585,351.113922 
	C193.437500,350.798004 196.277100,350.956787 199.090195,351.013855 
	C204.178757,351.117065 205.095718,352.837555 202.440552,357.925934 
z"/>
<path fill="#CDECF7" opacity="1.000000" stroke="none" 
	d="
M325.998657,197.543289 
	C326.008759,195.613480 326.018890,193.683685 326.422485,191.029938 
	C326.562561,185.284317 326.309143,180.262650 326.055725,175.240967 
	C326.216339,175.164627 326.376984,175.088303 326.803528,175.040512 
	C327.552856,181.204224 330.359131,187.243912 327.437958,193.537201 
	C326.778015,194.958984 327.349060,196.952164 327.043457,198.875336 
	C326.733429,199.068359 326.343231,198.798676 326.260712,198.462326 
	C326.201874,197.906143 326.142029,197.711914 325.998657,197.543289 
z"/>
<path fill="#2D438F" opacity="1.000000" stroke="none" 
	d="
M326.605225,174.606094 
	C326.479431,172.621811 326.755646,170.601746 327.416016,168.234848 
	C329.122467,168.385788 330.444733,168.883545 331.766968,169.381302 
	C332.034973,170.025742 332.302979,170.670181 332.421112,171.832886 
	C331.852570,172.891418 331.433868,173.431717 331.015137,173.972015 
	C329.679169,174.171432 328.343201,174.370865 326.605225,174.606094 
z"/>
<path fill="#CDECF7" opacity="1.000000" stroke="none" 
	d="
M168.829117,363.139404 
	C166.702927,363.252716 164.576721,363.365997 162.135529,363.737518 
	C162.150513,363.205048 162.321442,362.282379 162.844666,361.652100 
	C163.836258,360.457611 165.029877,359.430847 166.268036,357.973938 
	C167.741592,357.968597 169.086685,358.323730 170.463760,359.202881 
	C169.940201,360.864410 169.384659,362.001923 168.829117,363.139404 
z"/>
<path fill="#CDECF7" opacity="1.000000" stroke="none" 
	d="
M191.215088,279.983887 
	C195.050354,279.677429 199.010864,279.720551 203.427856,279.769562 
	C199.849594,283.256683 195.676483,283.627930 191.215088,279.983887 
z"/>
<path fill="#E8F9DA" opacity="1.000000" stroke="none" 
	d="
M263.526337,265.282898 
	C261.679504,267.954956 259.832642,270.626984 257.552979,273.003296 
	C257.077850,272.142822 257.035553,271.578125 256.993225,271.013428 
	C258.236359,269.527710 259.479462,268.042023 261.172607,266.137878 
	C262.257172,265.573914 262.891754,265.428406 263.526337,265.282898 
z"/>
<path fill="#CDECF7" opacity="1.000000" stroke="none" 
	d="
M174.033386,353.062622 
	C172.480453,352.568176 170.907913,351.763428 169.335358,350.958679 
	C169.987854,350.267303 170.640350,349.575928 171.639557,348.986145 
	C172.662094,350.309265 173.337936,351.530792 174.033386,353.062622 
z"/>
<path fill="#CDECF7" opacity="1.000000" stroke="none" 
	d="
M171.121994,370.936279 
	C173.723724,370.197662 176.461258,369.774353 179.599701,369.344788 
	C177.602295,372.334015 174.596039,372.551392 171.121994,370.936279 
z"/>
<path fill="#CDECF7" opacity="1.000000" stroke="none" 
	d="
M326.975555,165.650970 
	C324.710541,164.582336 322.422546,163.161484 320.021423,161.424347 
	C322.256409,162.504959 324.604492,163.901871 326.975555,165.650970 
z"/>
<path fill="#E8F9DA" opacity="1.000000" stroke="none" 
	d="
M262.470520,282.680054 
	C263.649384,280.785980 264.828278,278.891937 266.323547,276.930115 
	C266.639923,276.862335 266.939087,276.893829 267.007629,277.281616 
	C267.050446,278.108398 267.024750,278.547424 266.999054,278.986450 
	C266.166229,280.204376 265.333374,281.422302 263.860474,282.765411 
	C262.970428,282.820404 262.720490,282.750214 262.470520,282.680054 
z"/>
<path fill="#E8F9DA" opacity="1.000000" stroke="none" 
	d="
M270.618896,263.951813 
	C270.985291,264.550690 270.962036,265.092804 270.871094,266.039062 
	C268.803375,265.966339 266.803375,265.489471 264.383423,264.687561 
	C263.967957,263.911560 263.972351,263.460663 263.976807,263.009766 
	C266.060944,263.304871 268.145111,263.599976 270.618896,263.951813 
z"/>
<path fill="#E8F9DA" opacity="1.000000" stroke="none" 
	d="
M254.993317,276.310059 
	C255.205688,278.375885 255.015244,280.367859 254.781006,282.698242 
	C254.229568,282.838287 253.721939,282.639923 253.051300,282.208252 
	C253.455704,280.062042 254.023117,278.149139 254.993317,276.310059 
z"/>
<path fill="#ECF6FA" opacity="1.000000" stroke="none" 
	d="
M262.225037,282.756226 
	C262.720490,282.750214 262.970428,282.820404 263.605316,282.948975 
	C263.558777,284.480133 265.140930,287.404266 261.233582,285.927490 
	C261.007996,284.874908 261.000732,284.423981 260.993469,283.973083 
	C261.322144,283.592865 261.650879,283.212616 262.225037,282.756226 
z"/>
<path fill="#CDECF7" opacity="1.000000" stroke="none" 
	d="
M162.073044,365.570435 
	C163.553268,366.469788 164.944473,367.672089 166.540894,369.143250 
	C163.583038,370.352936 162.521698,368.465485 162.073044,365.570435 
z"/>
<path fill="#CDECF7" opacity="1.000000" stroke="none" 
	d="
M331.803589,169.009583 
	C330.444733,168.883545 329.122467,168.385788 327.454590,167.800781 
	C327.075317,167.333923 327.041687,166.954315 327.002258,166.288193 
	C328.610992,166.880402 330.225616,167.759125 331.803589,169.009583 
z"/>
<path fill="#E8F9DA" opacity="1.000000" stroke="none" 
	d="
M260.573059,283.982666 
	C261.000732,284.423981 261.007996,284.874908 261.010071,285.664124 
	C259.613190,286.006287 258.221466,286.010132 256.412140,286.006592 
	C255.981354,285.601440 255.968216,285.203674 255.960373,284.508545 
	C257.361328,284.138214 258.756989,284.065216 260.573059,283.982666 
z"/>
<path fill="#CDECF7" opacity="1.000000" stroke="none" 
	d="
M174.945984,342.285370 
	C173.937988,342.685699 172.851669,342.782379 171.373901,342.745605 
	C172.277542,342.402008 173.572617,342.191864 174.945984,342.285370 
z"/>
<path fill="#ECF6FA" opacity="1.000000" stroke="none" 
	d="
M256.670471,271.039734 
	C257.035553,271.578125 257.077850,272.142822 257.226379,273.123444 
	C257.332611,273.539368 257.324585,273.822601 256.862885,273.896729 
	C255.936615,273.978516 255.472061,273.986206 255.007492,273.993896 
	C255.454239,273.017944 255.900970,272.041962 256.670471,271.039734 
z"/>
<path fill="#ECF6FA" opacity="1.000000" stroke="none" 
	d="
M263.609802,263.015625 
	C263.972351,263.460663 263.967957,263.911560 263.977448,264.700928 
	C263.991364,265.039429 263.810944,265.265717 263.668640,265.274292 
	C262.891754,265.428406 262.257172,265.573914 261.314575,265.841431 
	C261.751984,264.982788 262.497375,264.002136 263.609802,263.015625 
z"/>
<path fill="#CDECF7" opacity="1.000000" stroke="none" 
	d="
M331.162537,174.213196 
	C331.433868,173.431717 331.852570,172.891418 332.556305,172.154938 
	C332.330902,172.790634 331.820435,173.622513 331.162537,174.213196 
z"/>
<path fill="#CDECF7" opacity="1.000000" stroke="none" 
	d="
M312.212067,178.294403 
	C312.836792,177.808060 313.619324,177.569550 314.720520,177.397003 
	C314.149414,177.822708 313.259674,178.182465 312.212067,178.294403 
z"/>
<path fill="#CDECF7" opacity="1.000000" stroke="none" 
	d="
M183.537292,366.974609 
	C183.558014,366.051422 183.914795,365.062592 184.577576,363.972351 
	C184.546829,364.883636 184.210083,365.896271 183.537292,366.974609 
z"/>
<path fill="#CDECF7" opacity="1.000000" stroke="none" 
	d="
M178.983261,354.313782 
	C178.463593,354.533081 177.909958,354.491028 177.198486,354.205627 
	C177.676865,353.992371 178.313095,354.022430 178.983261,354.313782 
z"/>
<path fill="#CDECF7" opacity="1.000000" stroke="none" 
	d="
M164.125076,356.165863 
	C164.788589,356.218719 165.444260,356.637024 166.223907,357.324402 
	C165.604324,357.239410 164.860779,356.885345 164.125076,356.165863 
z"/>
<path fill="#CDECF7" opacity="1.000000" stroke="none" 
	d="
M184.215973,358.799805 
	C183.697174,358.492401 183.401520,358.024597 183.101761,357.278503 
	C183.544800,357.546631 183.991959,358.093018 184.215973,358.799805 
z"/>
<path fill="#CDECF7" opacity="1.000000" stroke="none" 
	d="
M163.954102,346.123047 
	C164.034698,346.682373 163.806061,347.205811 163.312897,347.856812 
	C163.247208,347.351990 163.446045,346.719574 163.954102,346.123047 
z"/>
<path fill="#2D438F" opacity="1.000000" stroke="none" 
	d="
M182.608643,346.770386 
	C182.125488,346.671356 181.605713,346.329132 181.080719,345.738464 
	C181.574341,345.835754 182.073181,346.181488 182.608643,346.770386 
z"/>
<path fill="#ECF6FA" opacity="1.000000" stroke="none" 
	d="
M267.290649,278.953857 
	C267.024750,278.547424 267.050446,278.108398 267.143494,277.346100 
	C267.666748,277.363739 268.122681,277.704620 268.578613,278.045502 
	C268.246521,278.337433 267.914398,278.629333 267.290649,278.953857 
z"/>
<path fill="#E8F9DA" opacity="1.000000" stroke="none" 
	d="
M270.685181,270.121155 
	C271.286194,270.440155 271.619781,270.908539 271.974243,271.680511 
	C271.532318,271.997192 271.069489,272.010254 270.259705,271.998474 
	C270.081085,271.405914 270.249420,270.838226 270.685181,270.121155 
z"/>
<path fill="#E8F9DA" opacity="1.000000" stroke="none" 
	d="
M268.289154,274.933380 
	C268.303986,274.215485 268.694122,273.471527 269.390289,272.594238 
	C269.352356,273.276367 269.008423,274.091858 268.289154,274.933380 
z"/>
<path fill="#E8F9DA" opacity="1.000000" stroke="none" 
	d="
M255.018768,274.395081 
	C255.472061,273.986206 255.936615,273.978516 256.750488,273.982971 
	C256.742218,274.726990 256.384613,275.458954 255.722015,276.270996 
	C255.288010,275.832794 255.159042,275.314545 255.018768,274.395081 
z"/>
<path fill="#CDECF7" opacity="1.000000" stroke="none" 
	d="
M302.669037,189.011780 
	C302.572113,188.506363 302.725891,187.978958 303.106567,187.282867 
	C303.195557,187.739380 303.057648,188.364578 302.669037,189.011780 
z"/>
<path fill="#2AB0E4" opacity="1.000000" stroke="none" 
	d="
M325.409668,205.676788 
	C325.543365,205.146484 325.911774,204.725739 326.499115,204.371826 
	C326.360168,204.887909 326.002289,205.337143 325.409668,205.676788 
z"/>
<path fill="#CDECF7" opacity="1.000000" stroke="none" 
	d="
M327.360809,202.825928 
	C326.989227,202.556503 326.837036,202.126724 326.771118,201.358612 
	C327.098358,201.568726 327.339264,202.117157 327.360809,202.825928 
z"/>
<path fill="#CDECF7" opacity="1.000000" stroke="none" 
	d="
M244.235962,165.870514 
	C244.741791,165.766632 245.331329,166.007034 246.062134,166.543961 
	C245.575485,166.631927 244.947571,166.423386 244.235962,165.870514 
z"/>
<path fill="#ECF6FA" opacity="1.000000" stroke="none" 
	d="
M300.214478,190.563232 
	C300.232544,190.351089 300.377747,190.268661 300.770264,190.225830 
	C301.017548,190.265457 301.034760,190.627380 301.016357,190.807434 
	C300.752197,190.949402 300.533447,190.851212 300.214478,190.563232 
z"/>
<path fill="#2D438F" opacity="1.000000" stroke="none" 
	d="
M183.799164,347.599091 
	C183.530899,347.807709 183.335388,347.708130 183.140106,347.349030 
	C183.400330,347.015625 183.644196,347.082794 183.799164,347.599091 
z"/>
<path fill="#FFFFFF" opacity="1.000000" stroke="none" 
	d="
M261.903320,242.310623 
	C256.604004,242.678406 251.304703,243.046173 245.309036,243.005219 
	C241.949280,242.340164 238.972382,240.304565 236.994461,243.938751 
	C235.309433,244.111282 233.624420,244.283798 231.305511,244.044891 
	C226.923965,241.771912 223.300568,239.568008 219.392120,238.149414 
	C215.803589,236.846939 216.877518,235.236908 218.038086,232.971786 
	C219.940659,233.718979 221.533463,234.344528 223.970718,235.301712 
	C224.334885,229.575195 224.832367,224.556305 224.908691,219.531036 
	C224.956696,216.368729 223.105042,216.482758 220.627731,217.991333 
	C219.518661,217.958054 218.779419,217.930466 217.977661,217.532333 
	C216.929810,215.127502 215.944458,213.093201 214.974228,211.033401 
	C214.989334,211.007889 214.940063,211.040985 214.916840,210.711456 
	C213.928497,210.261765 212.963379,210.141617 211.624786,210.014664 
	C210.504608,209.995621 209.757904,209.983398 209.006866,209.582031 
	C208.840195,207.952454 208.677902,206.712021 208.360138,204.283279 
	C207.147232,206.643784 206.603043,207.702866 206.015762,208.845795 
	C202.386398,205.620651 202.476242,205.268494 206.331161,203.734879 
	C207.978745,203.079422 209.451904,201.985565 211.004318,201.090912 
	C212.075180,201.005157 213.146027,200.919418 214.643829,201.282715 
	C216.195663,203.295700 217.464874,204.776962 218.417435,206.439651 
	C220.903610,210.779266 222.970871,209.353500 225.007706,206.108887 
	C225.755493,206.065979 226.503265,206.023056 227.677399,206.414429 
	C230.630203,209.282379 242.574997,209.206329 244.499619,206.655899 
	C244.941193,206.070770 244.867538,205.096832 245.030991,204.301819 
	C246.081116,204.159042 247.131226,204.016266 248.737671,204.162415 
	C250.233597,204.175385 251.173187,203.899414 252.112778,203.623444 
	C253.461380,203.510529 254.809967,203.397614 256.574768,203.747223 
	C258.857635,208.158783 260.072937,211.879929 257.725861,216.389587 
	C256.814392,218.140900 257.623352,222.131073 259.118683,223.529465 
	C262.981415,227.141907 267.663269,229.878448 272.167999,233.273727 
	C277.465790,241.203247 284.314484,237.845596 287.979614,229.887299 
	C290.256195,224.944107 295.344269,223.919952 299.040619,220.830933 
	C300.080688,224.808594 300.862823,227.960739 301.732391,231.088577 
	C303.133240,236.127518 304.941040,241.082703 305.932892,246.198135 
	C307.040070,251.908264 305.523407,256.932678 299.671661,259.991089 
	C296.204346,256.861359 292.868744,257.012604 289.031281,260.095642 
	C288.417145,257.563507 288.043793,255.704132 287.496948,253.897278 
	C287.200287,252.917175 286.834442,251.765610 286.111755,251.138809 
	C282.157471,247.709229 278.082886,244.418365 274.049683,241.079834 
	C274.214600,240.630402 274.379547,240.180954 274.544495,239.731522 
	C272.031250,240.814301 269.517975,241.897095 267.004730,242.979889 
	C266.243195,242.890366 265.481628,242.800842 264.285217,242.285599 
	C263.201355,242.010117 262.552338,242.160370 261.903320,242.310623 
z"/>
<path fill="#6DCF33" opacity="1.000000" stroke="none" 
	d="
M281.543304,270.926422 
	C282.860626,270.203705 284.526154,269.530792 286.951630,268.838257 
	C303.849640,267.170837 311.286102,257.906189 307.920044,242.603958 
	C305.581238,231.971771 302.687775,221.401215 299.095825,211.134186 
	C297.611755,206.892227 294.417664,201.849182 290.647797,200.118057 
	C284.195740,197.155319 276.678467,196.512283 269.608521,194.895111 
	C267.512329,193.516876 265.416168,192.138657 263.025909,190.292542 
	C262.460541,188.338348 262.189270,186.852051 261.825867,184.861069 
	C264.636536,185.373550 266.833191,185.774063 269.126099,186.254288 
	C269.222351,186.334000 269.451630,186.234360 269.655182,186.542267 
	C276.257782,188.770828 282.656830,190.691483 289.388855,192.755554 
	C290.438049,193.003036 291.154266,193.107117 291.870483,193.211182 
	C300.210815,194.080307 303.843292,200.368134 305.989868,207.019958 
	C309.952179,219.298294 313.605927,231.757675 316.118286,244.394119 
	C317.828186,252.994492 315.192078,261.593903 309.224487,268.269318 
	C301.675385,276.713867 291.457886,277.420288 281.543304,270.926422 
z"/>
<path fill="#ECF6FA" opacity="1.000000" stroke="none" 
	d="
M210.592041,201.012894 
	C209.451904,201.985565 207.978745,203.079422 206.331161,203.734879 
	C202.476242,205.268494 202.386398,205.620651 206.015762,208.845795 
	C206.603043,207.702866 207.147232,206.643784 208.360138,204.283279 
	C208.677902,206.712021 208.840195,207.952454 208.787415,209.702179 
	C208.372009,210.648727 208.171707,211.086029 207.620865,211.704376 
	C206.429733,213.911240 205.589142,215.937057 204.413681,218.010330 
	C202.321030,218.719086 200.563232,219.380371 198.573883,219.756760 
	C199.336594,215.865158 200.330872,212.258438 201.370010,208.488968 
	C197.320084,206.545166 195.766083,210.857086 195.235367,212.742218 
	C194.560852,215.138062 196.267487,218.204254 196.816315,221.321198 
	C196.957397,223.460144 197.229675,225.259323 197.707520,227.366089 
	C199.949188,228.380127 201.985291,229.086548 204.104187,230.048920 
	C204.630524,230.562836 205.074066,230.820801 205.641739,231.462769 
	C206.113464,234.824005 206.778305,237.533600 210.706772,237.126984 
	C214.084717,236.777328 214.691833,234.531097 214.950851,231.563934 
	C215.056824,230.350082 216.631485,228.594788 217.856262,228.263840 
	C223.230576,226.811691 223.925858,225.286026 221.008057,219.613312 
	C221.002319,218.859070 220.999939,218.428040 220.997559,217.997025 
	C223.105042,216.482758 224.956696,216.368729 224.908691,219.531036 
	C224.832367,224.556305 224.334885,229.575195 223.970718,235.301712 
	C221.533463,234.344528 219.940659,233.718979 218.038086,232.971786 
	C216.877518,235.236908 215.803589,236.846939 219.392120,238.149414 
	C223.300568,239.568008 226.923965,241.771912 230.888397,243.955902 
	C227.008698,246.160934 222.912231,248.043518 218.409592,249.965744 
	C218.003433,250.005386 217.820602,249.820938 217.878998,249.440308 
	C218.652054,246.887360 219.366714,244.715057 220.229492,242.092529 
	C218.278748,243.041718 216.448853,243.932083 214.885544,244.692749 
	C212.842209,243.359131 211.121475,241.316910 209.280914,241.202515 
	C203.094238,240.817947 198.564255,238.600769 196.879761,232.399170 
	C191.106003,233.042816 191.064178,237.321793 189.341141,241.315643 
	C186.318192,248.322693 184.894791,254.261658 190.928848,260.158752 
	C191.414749,260.633606 190.780273,262.177612 191.246231,262.764099 
	C192.892258,264.835876 194.608444,266.959900 196.718445,268.480835 
	C197.261154,268.872070 200.323090,267.348114 200.557495,266.322327 
	C201.773956,260.999084 205.711273,260.903931 209.906937,260.905792 
	C209.998016,260.994415 210.180923,261.170929 210.180908,261.170929 
	C208.820526,263.224091 207.600647,265.389038 206.073288,267.309418 
	C201.578400,272.960938 198.430054,273.634308 190.530258,270.708130 
	C183.105484,262.105774 183.452148,252.244446 185.131256,242.243454 
	C186.523468,233.951233 188.123718,225.688293 189.866776,217.462173 
	C191.711060,208.758438 201.121902,201.242340 210.592041,201.012894 
z"/>
<path fill="#E8F9DA" opacity="1.000000" stroke="none" 
	d="
M269.374451,195.129105 
	C276.678467,196.512283 284.195740,197.155319 290.647797,200.118057 
	C294.417664,201.849182 297.611755,206.892227 299.095825,211.134186 
	C302.687775,221.401215 305.581238,231.971771 307.920044,242.603958 
	C311.286102,257.906189 303.849640,267.170837 287.321625,268.682495 
	C286.955536,268.127869 286.979370,267.709412 287.022705,266.975037 
	C288.030151,266.081177 289.018127,265.503174 290.716248,264.926178 
	C294.694122,264.002899 299.045990,264.984711 300.024933,260.036469 
	C305.523407,256.932678 307.040070,251.908264 305.932892,246.198135 
	C304.941040,241.082703 303.133240,236.127518 301.732391,231.088577 
	C300.862823,227.960739 300.080688,224.808594 299.040619,220.830933 
	C295.344269,223.919952 290.256195,224.944107 287.979614,229.887299 
	C284.314484,237.845596 277.465790,241.203247 272.165649,232.858551 
	C272.752594,230.476685 273.491852,228.818878 274.223969,227.500351 
	C274.089264,228.322769 273.706604,228.936798 273.876221,229.267410 
	C274.845337,231.156204 275.600433,234.052139 277.094818,234.532654 
	C278.731873,235.059052 281.601288,233.821594 282.951843,232.412094 
	C283.792542,231.534683 283.486084,228.051987 282.493103,227.276077 
	C280.997559,226.107513 278.462494,226.155670 276.344238,225.964371 
	C275.674622,225.903900 274.924713,226.732193 274.148163,226.776886 
	C275.266937,225.258820 276.498260,224.163574 277.618500,222.964584 
	C278.962952,221.525681 280.212738,219.998322 280.668640,219.472412 
	C276.549835,216.767242 272.486267,215.270126 270.428162,212.356415 
	C268.923462,210.226242 269.730042,206.175568 270.266907,203.114288 
	C270.385925,202.435608 273.700500,202.302094 275.549530,201.947952 
	C276.608856,201.745056 277.679901,201.603302 278.745667,201.434021 
	C278.921844,200.889801 279.098053,200.345581 279.274261,199.801376 
	C275.784424,198.512131 272.294617,197.222885 268.804810,195.933655 
	C268.916687,195.743454 269.028564,195.553268 269.374451,195.129105 
M293.572815,220.883987 
	C294.588745,217.444519 293.537689,214.688629 290.018219,214.032440 
	C288.351410,213.721695 285.070312,214.883698 284.772766,215.986252 
	C284.236633,217.973007 284.669891,221.113815 286.011780,222.510773 
	C288.152740,224.739594 291.140594,224.412384 293.572815,220.883987 
M282.408203,207.858566 
	C281.200562,203.941452 278.134766,203.070709 275.065643,204.644547 
	C273.632019,205.379684 272.222046,208.838959 272.812897,210.171524 
	C273.564880,211.867401 276.560974,213.811890 278.211334,213.518860 
	C279.889404,213.220901 281.107758,210.333618 282.408203,207.858566 
z"/>
<path fill="#ECF6FA" opacity="1.000000" stroke="none" 
	d="
M268.485657,196.018997 
	C272.294617,197.222885 275.784424,198.512131 279.274261,199.801376 
	C279.098053,200.345581 278.921844,200.889801 278.745667,201.434021 
	C277.679901,201.603302 276.608856,201.745056 275.549530,201.947952 
	C273.700500,202.302094 270.385925,202.435608 270.266907,203.114288 
	C269.730042,206.175568 268.923462,210.226242 270.428162,212.356415 
	C272.486267,215.270126 276.549835,216.767242 280.668640,219.472412 
	C280.212738,219.998322 278.962952,221.525681 277.618500,222.964584 
	C276.498260,224.163574 275.266937,225.258820 274.128784,226.709473 
	C274.172760,227.018936 274.231079,227.161072 274.231079,227.161072 
	C273.491852,228.818878 272.752594,230.476685 272.015686,232.549652 
	C267.663269,229.878448 262.981415,227.141907 259.118683,223.529465 
	C257.623352,222.131073 256.814392,218.140900 257.725861,216.389587 
	C260.072937,211.879929 258.857635,208.158783 256.970520,203.856155 
	C260.688904,201.036484 264.427673,198.570419 268.485657,196.018997 
M263.676300,216.134140 
	C263.208618,217.468933 261.960785,219.267929 262.425049,220.048233 
	C263.636444,222.084335 265.383026,224.696091 267.330597,225.105148 
	C268.777802,225.409134 272.469635,222.435471 272.329315,221.259842 
	C272.080231,219.173538 269.879028,217.122208 268.081604,215.519302 
	C267.392242,214.904556 265.571686,215.558289 263.676300,216.134140 
z"/>
<path fill="#3045B4" opacity="1.000000" stroke="none" 
	d="
M297.277954,172.803162 
	C297.172089,175.077911 297.583221,177.582184 296.780792,179.605011 
	C295.583344,182.623596 293.530487,185.302856 291.310883,188.478607 
	C290.168060,188.911301 289.555908,188.991867 288.619965,188.831039 
	C287.501282,188.504730 286.706421,188.419830 285.699402,188.046387 
	C284.329254,187.591675 283.171295,187.425491 281.767120,187.167038 
	C281.347473,187.049194 281.174072,187.023621 280.914978,186.779175 
	C280.610016,186.221756 280.338562,186.172791 279.673920,186.235291 
	C277.388947,185.414337 275.444946,184.771469 273.514221,183.903412 
	C273.527527,183.678207 273.255463,183.318314 273.255463,183.318314 
	C275.163208,183.210159 277.071777,183.000488 278.978546,183.015488 
	C282.658112,183.044388 284.973907,179.866669 283.318817,176.718262 
	C281.354919,172.982422 279.168945,169.363327 277.013611,165.336578 
	C282.501282,166.600586 288.054535,168.221619 293.934082,170.460358 
	C294.914886,171.310211 295.569458,171.542343 296.223999,171.774475 
	C296.223999,171.774475 296.085754,171.833588 296.176697,172.066223 
	C296.591705,172.490967 296.915710,172.683044 297.239746,172.875137 
	C297.239746,172.875137 297.251923,172.817245 297.277954,172.803162 
z"/>
<path fill="#ECF6FA" opacity="1.000000" stroke="none" 
	d="
M285.911560,188.334930 
	C286.706421,188.419830 287.501282,188.504730 288.703491,188.991791 
	C289.739349,189.426941 290.367889,189.459930 290.996429,189.492920 
	C291.333893,189.507828 291.671387,189.522720 292.569427,189.925934 
	C293.721039,190.300415 294.312073,190.286591 294.903107,190.272766 
	C295.683258,190.267426 296.463409,190.262085 297.617615,190.374237 
	C296.099091,191.191406 294.206573,191.891113 292.092255,192.901001 
	C291.154266,193.107117 290.438049,193.003036 289.277771,192.423676 
	C282.372986,190.043686 275.912323,188.139023 269.451630,186.234360 
	C269.451630,186.234360 269.222351,186.334000 268.977753,185.904541 
	C267.469971,184.807159 266.249542,183.707977 264.933044,183.577377 
	C263.173889,183.402878 261.340149,183.979889 259.538452,184.234161 
	C259.839386,185.866669 260.123230,187.502625 260.449860,189.129974 
	C260.576233,189.759644 260.799561,190.369827 260.978729,190.988892 
	C258.430664,194.404556 250.109909,196.894775 246.415771,195.074173 
	C245.540161,194.642654 244.817307,193.064163 244.748611,191.967880 
	C244.294800,184.725922 249.603409,182.212860 255.749222,179.903534 
	C257.640869,179.694168 258.796112,179.425903 259.951385,179.157623 
	C260.401520,179.208405 260.851685,179.259201 261.736267,179.735626 
	C265.947449,181.483704 269.724182,182.806152 273.500946,184.128601 
	C275.444946,184.771469 277.388947,185.414337 279.794373,186.395966 
	C280.470581,186.917267 280.718872,187.005035 281.000641,186.998062 
	C281.174072,187.023621 281.347473,187.049194 281.955170,187.386078 
	C283.563477,187.909897 284.737518,188.122421 285.911560,188.334930 
z"/>
<path fill="#ECF6FA" opacity="1.000000" stroke="none" 
	d="
M244.590973,204.172302 
	C244.867538,205.096832 244.941193,206.070770 244.499619,206.655899 
	C242.574997,209.206329 230.630203,209.282379 228.047516,206.479248 
	C228.965164,205.994934 229.939041,205.880051 231.655731,205.836212 
	C233.617371,205.485703 234.836197,205.064148 236.055038,204.642609 
	C238.753677,204.442673 241.452301,204.242737 244.590973,204.172302 
z"/>
<path fill="#E8F9DA" opacity="1.000000" stroke="none" 
	d="
M261.260559,190.974304 
	C260.799561,190.369827 260.576233,189.759644 260.449860,189.129974 
	C260.123230,187.502625 259.839386,185.866669 259.538452,184.234161 
	C261.340149,183.979889 263.173889,183.402878 264.933044,183.577377 
	C266.249542,183.707977 267.469971,184.807159 268.881500,185.824829 
	C266.833191,185.774063 264.636536,185.373550 261.825867,184.861069 
	C262.189270,186.852051 262.460541,188.338348 262.650940,190.165131 
	C262.227509,190.656982 261.884949,190.808350 261.260559,190.974304 
z"/>
<path fill="#ECF6FA" opacity="1.000000" stroke="none" 
	d="
M224.673828,205.973404 
	C222.970871,209.353500 220.903610,210.779266 218.417435,206.439651 
	C217.464874,204.776962 216.195663,203.295700 215.037918,201.375580 
	C218.116699,202.625565 221.228317,204.231735 224.673828,205.973404 
z"/>
<path fill="#CDECF7" opacity="1.000000" stroke="none" 
	d="
M273.514221,183.903412 
	C269.724182,182.806152 265.947449,181.483704 262.052612,179.861481 
	C265.497040,180.775726 269.059601,181.989761 272.938782,183.261063 
	C273.255463,183.318314 273.527527,183.678207 273.514221,183.903412 
z"/>
<path fill="#CDECF7" opacity="1.000000" stroke="none" 
	d="
M259.755249,178.887695 
	C258.796112,179.425903 257.640869,179.694168 256.107056,179.902344 
	C257.005371,179.434082 258.282257,179.025909 259.755249,178.887695 
z"/>
<path fill="#CDECF7" opacity="1.000000" stroke="none" 
	d="
M235.733063,204.472458 
	C234.836197,205.064148 233.617371,205.485703 232.024994,205.853668 
	C232.904648,205.300827 234.157867,204.801575 235.733063,204.472458 
z"/>
<path fill="#CDECF7" opacity="1.000000" stroke="none" 
	d="
M251.806198,203.446564 
	C251.173187,203.899414 250.233597,204.175385 249.137604,204.189102 
	C249.820679,203.707794 250.660141,203.488754 251.806198,203.446564 
z"/>
<path fill="#6DCF33" opacity="1.000000" stroke="none" 
	d="
M260.972412,251.225311 
	C257.652588,256.984131 254.226242,262.614502 250.270920,267.844849 
	C249.383209,269.018707 246.645279,268.793335 244.759140,269.212128 
	C244.409805,267.160431 243.148880,264.663849 243.890396,263.144562 
	C245.752167,259.329865 248.519302,255.957047 251.073486,252.073532 
	C254.373978,251.477463 257.524353,251.214890 260.972412,251.225311 
z"/>
<path fill="#ECF6FA" opacity="1.000000" stroke="none" 
	d="
M299.671661,259.991089 
	C299.045990,264.984711 294.694122,264.002899 291.006592,264.878296 
	C285.715393,259.414551 281.042725,253.799408 275.881165,248.676910 
	C273.609161,246.422150 270.342743,245.169434 267.266296,243.220825 
	C269.517975,241.897095 272.031250,240.814301 274.544495,239.731522 
	C274.379547,240.180954 274.214600,240.630402 274.049683,241.079834 
	C278.082886,244.418365 282.157471,247.709229 286.111755,251.138809 
	C286.834442,251.765610 287.200287,252.917175 287.496948,253.897278 
	C288.043793,255.704132 288.417145,257.563507 289.031281,260.095642 
	C292.868744,257.012604 296.204346,256.861359 299.671661,259.991089 
z"/>
<path fill="#ECF6FA" opacity="1.000000" stroke="none" 
	d="
M218.094727,250.097702 
	C215.709381,253.732864 213.232742,257.275696 210.468506,260.994751 
	C210.180923,261.170929 209.998016,260.994415 209.966858,260.491516 
	C210.156281,256.187408 210.376877,252.386200 210.612854,248.320068 
	C213.025330,248.822418 215.422958,249.321671 217.820602,249.820938 
	C217.820602,249.820938 218.003433,250.005386 218.094727,250.097702 
z"/>
<path fill="#ECF6FA" opacity="1.000000" stroke="none" 
	d="
M237.410095,244.038544 
	C238.972382,240.304565 241.949280,242.340164 244.855042,242.928070 
	C242.673508,243.552536 240.249634,243.845428 237.410095,244.038544 
z"/>
<path fill="#ECF6FA" opacity="1.000000" stroke="none" 
	d="
M262.139709,242.479736 
	C262.552338,242.160370 263.201355,242.010117 263.937805,242.114105 
	C263.475555,242.461838 262.925842,242.555344 262.139709,242.479736 
z"/>
<path fill="#CDECF7" opacity="1.000000" stroke="none" 
	d="
M208.571411,276.855896 
	C208.629013,277.108368 208.401581,277.427399 207.866516,277.776093 
	C207.801376,277.511322 208.043869,277.216888 208.571411,276.855896 
z"/>
<path fill="#CDECF7" opacity="1.000000" stroke="none" 
	d="
M209.592438,275.810364 
	C209.689819,276.048615 209.521851,276.378571 209.072937,276.781006 
	C208.970383,276.536316 209.148743,276.219208 209.592438,275.810364 
z"/>
<path fill="#2AB0E4" opacity="1.000000" stroke="none" 
	d="
M232.139084,157.030960 
	C231.102066,156.385696 230.340836,155.466949 229.579605,154.548203 
	C230.906174,153.674683 232.120560,152.392258 233.577148,151.992645 
	C244.740448,148.929886 256.608673,147.485031 266.994812,142.760727 
	C283.195984,135.391342 294.364288,142.921463 305.920715,152.499603 
	C304.410461,152.835358 302.459290,153.469315 301.114746,152.829178 
	C297.704468,151.205582 294.363586,149.275635 291.366425,146.982742 
	C286.837708,143.518204 282.064758,143.213181 276.838318,144.649368 
	C262.038940,148.716110 247.223801,152.725494 232.139084,157.030960 
z"/>
<path fill="#2AB0E4" opacity="1.000000" stroke="none" 
	d="
M325.682312,175.210632 
	C326.309143,180.262650 326.562561,185.284317 326.574158,190.568298 
	C325.167664,191.931213 323.760651,192.872574 322.904205,194.175751 
	C321.986816,195.571732 321.587769,197.308319 320.626404,199.006042 
	C320.912750,191.672668 321.535217,184.229492 322.160400,176.326614 
	C322.197540,175.553772 322.365082,175.350189 322.865936,175.193771 
	C323.813660,175.147690 324.561279,175.164001 325.682312,175.210632 
z"/>
<path fill="#2D438F" opacity="1.000000" stroke="none" 
	d="
M241.890900,162.707397 
	C240.945969,162.620285 239.952118,162.155899 238.757339,161.404510 
	C239.651596,161.521698 240.746796,161.925919 241.890900,162.707397 
z"/>
<path fill="#6DCF33" opacity="1.000000" stroke="none" 
	d="
M234.751755,265.396667 
	C231.480560,271.183319 228.294739,276.712799 224.635880,281.909180 
	C224.035156,282.762329 221.036377,282.732910 219.739777,282.024445 
	C218.775665,281.497681 217.933777,278.717438 218.479919,277.794800 
	C221.414352,272.837952 224.453323,267.852692 228.172318,263.487335 
	C230.128571,261.191040 233.081970,261.998260 234.751755,265.396667 
z"/>
<path fill="#FFFFFF" opacity="1.000000" stroke="none" 
	d="
M264.531189,255.394501 
	C264.648102,254.941330 264.935760,254.666290 265.223419,254.391251 
	C265.337280,254.510315 265.451141,254.629395 265.564972,254.748474 
	C265.277313,255.023193 264.989624,255.297913 264.531189,255.394501 
z"/>
<path fill="#CDECF7" opacity="1.000000" stroke="none" 
	d="
M256.606110,358.394165 
	C258.604675,358.171356 260.211029,358.033264 262.291473,357.854431 
	C262.376373,361.923492 261.199677,364.785187 257.164795,365.076019 
	C255.555832,365.191986 253.834106,363.743805 252.163696,363.007629 
	C253.513763,361.498077 254.863831,359.988495 256.606110,358.394165 
z"/>
<path fill="#282C42" opacity="1.000000" stroke="none" 
	d="
M282.628784,346.454895 
	C286.642761,343.271057 290.324860,343.047852 294.433838,345.677856 
	C295.540131,346.385925 297.515472,345.860657 299.073853,345.712189 
	C302.371429,345.397980 306.258209,343.720795 308.768799,344.939575 
	C311.019714,346.032288 312.412628,350.129639 312.983765,353.129913 
	C313.687347,356.825867 313.332275,360.771942 313.052704,364.581940 
	C312.944458,366.056824 311.790466,367.454956 311.112915,368.888062 
	C310.349487,367.368805 309.102295,365.903625 308.925110,364.318817 
	C308.575653,361.193542 308.947174,357.995331 308.783905,354.839508 
	C308.597717,351.240448 307.442810,348.059723 303.103455,348.067688 
	C298.731689,348.075684 297.026062,350.807983 297.062469,354.935822 
	C297.094788,358.599091 297.175201,362.271393 296.945831,365.921539 
	C296.881683,366.942017 295.795990,367.898254 295.178925,368.883972 
	C294.397430,367.891602 293.059723,366.965485 292.932281,365.895172 
	C292.423035,361.619904 292.704651,357.213104 291.830811,353.035461 
	C291.435089,351.143646 289.297272,348.785736 287.460175,348.214905 
	C284.490967,347.292236 281.765106,348.963715 281.195038,352.308136 
	C280.584778,355.888336 280.683258,359.587097 280.116852,363.178009 
	C279.811981,365.110657 278.762085,366.925751 278.048340,368.793884 
	C277.354553,366.814728 276.220947,364.870483 276.060303,362.848969 
	C275.744720,358.877319 275.959900,354.862671 275.974121,350.865845 
	C275.999268,343.808960 276.292267,343.616119 282.628784,346.454895 
z"/>
<path fill="#2D438F" opacity="1.000000" stroke="none" 
	d="
M296.088104,171.455261 
	C295.569458,171.542343 294.914886,171.310211 294.164734,170.713226 
	C294.696838,170.610962 295.324524,170.873505 296.088104,171.455261 
z"/>
<path fill="#2D438F" opacity="1.000000" stroke="none" 
	d="
M297.166321,172.586411 
	C296.915710,172.683044 296.591705,172.490967 296.221802,172.006073 
	C296.481567,171.908081 296.787231,172.102890 297.166321,172.586411 
z"/>
<path fill="#FFFFFF" opacity="1.000000" stroke="none" 
	d="
M168.839233,363.138245 
	C169.384659,362.001923 169.940201,360.864410 170.697510,359.460022 
	C172.381607,359.443756 173.863968,359.694366 175.705582,360.458313 
	C176.549530,361.255707 177.034225,361.539734 177.518921,361.823761 
	C177.602173,362.038391 177.685425,362.253052 177.224365,362.857483 
	C174.068130,363.217896 171.456238,363.188446 168.844330,363.159027 
	C168.844330,363.159027 168.849335,363.137054 168.839233,363.138245 
z"/>
<path fill="#CDECF7" opacity="1.000000" stroke="none" 
	d="
M168.941223,363.490662 
	C171.456238,363.188446 174.068130,363.217896 177.083191,363.172638 
	C175.012238,367.327820 171.997818,365.256104 168.941223,363.490662 
z"/>
<path fill="#CDECF7" opacity="1.000000" stroke="none" 
	d="
M177.500549,361.508301 
	C177.034225,361.539734 176.549530,361.255707 176.016647,360.673035 
	C176.473022,360.647186 176.977600,360.920044 177.500549,361.508301 
z"/>
<path fill="#6DCF33" opacity="1.000000" stroke="none" 
	d="
M236.883789,298.890869 
	C235.708221,300.306763 234.919250,301.921875 233.688095,302.401062 
	C232.218918,302.972961 229.822739,303.231049 228.837509,302.411560 
	C227.799881,301.548462 227.088379,298.719513 227.733231,297.673279 
	C230.938049,292.473694 234.461899,287.436584 238.308228,282.694977 
	C239.091843,281.728943 242.687103,281.514954 243.322250,282.300171 
	C244.389801,283.620026 244.982697,286.463806 244.251251,287.878571 
	C242.290497,291.671143 239.522171,295.046204 236.883789,298.890869 
z"/>
<path fill="#CDECF7" opacity="1.000000" stroke="none" 
	d="
M291.153870,189.362274 
	C290.367889,189.459930 289.739349,189.426941 289.027283,189.233185 
	C289.555908,188.991867 290.168060,188.911301 291.097351,188.833176 
	C291.414551,188.835617 291.311340,189.231613 291.153870,189.362274 
z"/>
<path fill="#CDECF7" opacity="1.000000" stroke="none" 
	d="
M294.708679,190.077148 
	C294.312073,190.286591 293.721039,190.300415 293.039948,190.113968 
	C293.471344,189.902969 293.992767,189.892258 294.708679,190.077148 
z"/>
<path fill="#2AB0E4" opacity="1.000000" stroke="none" 
	d="
M319.746704,201.163788 
	C320.905457,202.244812 321.788757,203.568329 322.751862,205.164917 
	C319.211548,206.177856 318.489960,204.501770 319.746704,201.163788 
z"/>
<path fill="#2AB0E4" opacity="1.000000" stroke="none" 
	d="
M325.828094,197.549225 
	C326.142029,197.711914 326.201874,197.906143 326.125916,198.267181 
	C325.934967,198.123978 325.796234,197.839569 325.828094,197.549225 
z"/>
<path fill="#CDECF7" opacity="1.000000" stroke="none" 
	d="
M220.627731,217.991333 
	C220.999939,218.428040 221.002319,218.859070 220.600677,219.676743 
	C217.619003,219.542221 214.062088,220.532196 213.628281,216.449677 
	C213.247742,212.868469 211.003647,211.844681 207.971405,211.523315 
	C208.171707,211.086029 208.372009,210.648727 208.791763,210.091309 
	C209.757904,209.983398 210.504608,209.995621 211.829102,210.270706 
	C213.251282,210.702698 214.095673,210.871841 214.940063,211.040985 
	C214.940063,211.040985 214.989334,211.007889 214.980362,211.439514 
	C215.394791,214.186722 213.765335,217.546768 218.040176,217.902863 
	C218.779419,217.930466 219.518661,217.958054 220.627731,217.991333 
z"/>
<path fill="#ECF6FA" opacity="1.000000" stroke="none" 
	d="
M217.977661,217.532318 
	C213.765335,217.546768 215.394791,214.186722 214.965256,211.465027 
	C215.944458,213.093201 216.929810,215.127502 217.977661,217.532318 
z"/>
<path fill="#ECF6FA" opacity="1.000000" stroke="none" 
	d="
M214.916840,210.711441 
	C214.095673,210.871841 213.251282,210.702698 212.202576,210.277512 
	C212.963379,210.141617 213.928497,210.261765 214.916840,210.711441 
z"/>
<path fill="#E8F9DA" opacity="1.000000" stroke="none" 
	d="
M269.655182,186.542267 
	C275.912323,188.139023 282.372986,190.043686 288.944763,192.280243 
	C282.656830,190.691483 276.257782,188.770828 269.655182,186.542267 
z"/>
<path fill="#FFFFFF" opacity="1.000000" stroke="none" 
	d="
M217.878998,249.440308 
	C215.422958,249.321671 213.025330,248.822418 210.612854,248.320068 
	C210.376877,252.386200 210.156281,256.187408 209.875763,260.402893 
	C205.711273,260.903931 201.773956,260.999084 200.557495,266.322327 
	C200.323090,267.348114 197.261154,268.872070 196.718445,268.480835 
	C194.608444,266.959900 192.892258,264.835876 191.246231,262.764099 
	C190.780273,262.177612 191.414749,260.633606 190.928848,260.158752 
	C184.894791,254.261658 186.318192,248.322693 189.341141,241.315643 
	C191.064178,237.321793 191.106003,233.042816 196.879761,232.399170 
	C198.564255,238.600769 203.094238,240.817947 209.280914,241.202515 
	C211.121475,241.316910 212.842209,243.359131 214.885544,244.692749 
	C216.448853,243.932083 218.278748,243.041718 220.229492,242.092529 
	C219.366714,244.715057 218.652054,246.887360 217.878998,249.440308 
z"/>
<path fill="#2AB0E4" opacity="1.000000" stroke="none" 
	d="
M207.620865,211.704376 
	C211.003647,211.844681 213.247742,212.868469 213.628281,216.449677 
	C214.062088,220.532196 217.619003,219.542221 220.604050,219.999969 
	C223.925858,225.286026 223.230576,226.811691 217.856262,228.263840 
	C216.631485,228.594788 215.056824,230.350082 214.950851,231.563934 
	C214.691833,234.531097 214.084717,236.777328 210.706772,237.126984 
	C206.778305,237.533600 206.113464,234.824005 205.659882,231.164597 
	C205.043060,230.252609 204.532211,230.022797 204.021378,229.792969 
	C201.985291,229.086548 199.949188,228.380127 197.847488,226.959747 
	C197.935181,224.553879 198.088486,222.861984 198.434418,221.122040 
	C198.627060,221.074020 198.941162,220.831131 199.328659,220.905624 
	C201.393616,219.974365 203.071075,218.968613 204.748535,217.962860 
	C205.589142,215.937057 206.429733,213.911240 207.620865,211.704376 
z"/>
<path fill="#FFFFFF" opacity="1.000000" stroke="none" 
	d="
M198.941162,220.831131 
	C198.941162,220.831131 198.627060,221.074020 198.114975,221.043121 
	C197.384430,221.001953 197.165955,220.991699 196.947479,220.981430 
	C196.267487,218.204254 194.560852,215.138062 195.235367,212.742218 
	C195.766083,210.857086 197.320084,206.545166 201.370010,208.488968 
	C200.330872,212.258438 199.336594,215.865158 198.606888,219.954285 
	C198.871445,220.436722 198.941162,220.831131 198.941162,220.831131 
z"/>
<path fill="#CDECF7" opacity="1.000000" stroke="none" 
	d="
M199.328659,220.905624 
	C198.941162,220.831131 198.871445,220.436722 198.838440,220.239197 
	C200.563232,219.380371 202.321030,218.719086 204.413666,218.010330 
	C203.071075,218.968613 201.393616,219.974365 199.328659,220.905624 
z"/>
<path fill="#CDECF7" opacity="1.000000" stroke="none" 
	d="
M196.816315,221.321198 
	C197.165955,220.991699 197.384430,221.001953 197.922333,221.091156 
	C198.088486,222.861984 197.935181,224.553879 197.641907,226.652130 
	C197.229675,225.259323 196.957397,223.460144 196.816315,221.321198 
z"/>
<path fill="#CDECF7" opacity="1.000000" stroke="none" 
	d="
M204.104187,230.048920 
	C204.532211,230.022797 205.043060,230.252609 205.535736,230.780579 
	C205.074066,230.820801 204.630524,230.562836 204.104187,230.048920 
z"/>
<path fill="#6DCF33" opacity="1.000000" stroke="none" 
	d="
M293.401794,221.223938 
	C291.140594,224.412384 288.152740,224.739594 286.011780,222.510773 
	C284.669891,221.113815 284.236633,217.973007 284.772766,215.986252 
	C285.070312,214.883698 288.351410,213.721695 290.018219,214.032440 
	C293.537689,214.688629 294.588745,217.444519 293.401794,221.223938 
z"/>
<path fill="#6DCF33" opacity="1.000000" stroke="none" 
	d="
M282.467834,208.219391 
	C281.107758,210.333618 279.889404,213.220901 278.211334,213.518860 
	C276.560974,213.811890 273.564880,211.867401 272.812897,210.171524 
	C272.222046,208.838959 273.632019,205.379684 275.065643,204.644547 
	C278.134766,203.070709 281.200562,203.941452 282.467834,208.219391 
z"/>
<path fill="#6DCF33" opacity="1.000000" stroke="none" 
	d="
M274.192139,227.086334 
	C274.924713,226.732193 275.674622,225.903900 276.344238,225.964371 
	C278.462494,226.155670 280.997559,226.107513 282.493103,227.276077 
	C283.486084,228.051987 283.792542,231.534683 282.951843,232.412094 
	C281.601288,233.821594 278.731873,235.059052 277.094818,234.532654 
	C275.600433,234.052139 274.845337,231.156204 273.876221,229.267410 
	C273.706604,228.936798 274.089264,228.322769 274.223938,227.500351 
	C274.231079,227.161072 274.172760,227.018936 274.192139,227.086334 
z"/>
<path fill="#2AB0E4" opacity="1.000000" stroke="none" 
	d="
M263.971436,215.884079 
	C265.571686,215.558289 267.392242,214.904556 268.081604,215.519302 
	C269.879028,217.122208 272.080231,219.173538 272.329315,221.259842 
	C272.469635,222.435471 268.777802,225.409134 267.330597,225.105148 
	C265.383026,224.696091 263.636444,222.084335 262.425049,220.048233 
	C261.960785,219.267929 263.208618,217.468933 263.971436,215.884079 
z"/>
<path fill="#CDECF7" opacity="1.000000" stroke="none" 
	d="
M285.699402,188.046387 
	C284.737518,188.122421 283.563477,187.909897 282.201385,187.478363 
	C283.171295,187.425491 284.329254,187.591675 285.699402,188.046387 
z"/>
<path fill="#CDECF7" opacity="1.000000" stroke="none" 
	d="
M280.914978,186.779175 
	C280.718872,187.005035 280.470581,186.917267 280.135315,186.574066 
	C280.338562,186.172791 280.610016,186.221756 280.914978,186.779175 
z"/>
</svg>