<?xml version="1.0" standalone="no"?>
<!DOCTYPE svg PUBLIC "-//W3C//DTD SVG 20010904//EN"
 "http://www.w3.org/TR/2001/REC-SVG-20010904/DTD/svg10.dtd">
<svg version="1.0" xmlns="http://www.w3.org/2000/svg"
 width="305.000000pt" height="228.000000pt" viewBox="0 0 305.000000 228.000000"
 preserveAspectRatio="xMidYMid meet">

<g transform="translate(0.000000,228.000000) scale(0.100000,-0.100000)"
fill="#000000" stroke="none">
<path d="M2295 2213 c-52 -12 -233 -75 -253 -88 -36 -26 -38 -75 -6 -173 44
-139 56 -158 111 -176 77 -24 167 -40 195 -33 30 8 148 152 148 182 0 28 -23
99 -60 188 -28 68 -35 77 -71 91 -22 9 -40 15 -42 15 -1 -1 -11 -3 -22 -6z
m-33 -147 c15 -16 23 -17 60 -8 23 6 44 9 47 7 2 -3 -4 -22 -13 -44 -17 -37
-17 -39 4 -81 l22 -43 -50 7 c-48 6 -51 5 -72 -24 -31 -43 -50 -39 -50 11 0
38 -2 42 -40 56 -22 9 -40 19 -40 24 0 4 16 17 34 29 29 17 36 29 42 66 7 48
13 48 56 0z"/>
<path d="M1825 1949 c-55 -22 -118 -46 -140 -54 -22 -7 -78 -28 -125 -45 -47
-18 -96 -36 -110 -40 -153 -51 -241 -90 -291 -131 -31 -25 -91 -61 -135 -79
l-79 -34 -225 -7 c-252 -7 -271 -12 -366 -87 -67 -53 -84 -92 -147 -332 -29
-109 -137 -496 -157 -560 -11 -36 -20 -69 -20 -73 0 -3 19 14 42 39 48 52 147
106 226 123 30 6 145 11 260 11 l207 0 -38 -31 c-49 -40 -67 -77 -67 -135 0
-112 57 -206 139 -234 81 -26 213 17 260 85 49 72 32 200 -36 275 l-35 40 43
0 c44 0 44 0 71 -57 42 -93 51 -131 44 -190 -7 -63 -18 -86 -54 -126 -30 -31
-27 -32 36 -12 26 8 85 26 132 41 47 14 113 35 148 45 34 10 91 28 127 39 36
11 93 29 128 39 34 10 208 64 387 120 l325 101 151 0 c187 0 241 15 325 89 61
53 90 112 134 271 74 266 76 295 34 376 -30 57 -65 90 -118 112 -41 18 -78 21
-341 26 -162 3 -296 6 -297 6 0 0 5 25 12 56 9 41 10 56 1 58 -6 2 -51 13
-101 25 -110 26 -130 44 -168 156 -44 126 -48 135 -66 134 -9 -1 -61 -19 -116
-40z m-851 -531 c-17 -56 -24 -66 -55 -77 -17 -6 -76 -11 -129 -11 -110 0
-129 -9 -149 -69 -23 -72 -25 -71 109 -71 l120 0 0 -30 c0 -19 -9 -40 -25 -55
-23 -24 -31 -25 -133 -25 l-110 0 -11 -57 c-26 -135 -37 -175 -51 -183 -18 -9
-120 -24 -120 -17 0 7 41 200 76 357 54 243 75 259 327 260 l158 0 -7 -22z
m1456 -268 l0 -250 -40 0 c-34 0 -40 3 -40 21 0 20 0 20 -32 -3 -50 -35 -133
-32 -183 6 -100 77 -99 243 3 311 20 13 51 27 69 31 35 7 99 -10 126 -34 16
-14 17 -10 17 76 l0 92 40 0 40 0 0 -250z m-1198 219 c20 -5 46 -17 58 -27 19
-16 20 -21 9 -45 -14 -31 -24 -33 -68 -11 -81 41 -171 22 -171 -36 0 -37 24
-53 110 -75 85 -22 117 -40 140 -78 50 -82 0 -175 -107 -197 -108 -23 -271 30
-243 79 25 43 24 43 81 16 94 -43 199 -28 199 29 0 35 -29 54 -118 80 -131 38
-159 67 -149 155 6 57 48 99 113 116 48 13 74 12 146 -6z m266 -67 l3 -42 45
0 c44 0 44 0 44 -35 0 -35 0 -35 -45 -35 l-45 0 0 -99 c0 -113 11 -137 60
-126 24 5 28 3 33 -22 7 -38 -4 -47 -64 -47 -46 0 -55 4 -80 32 -28 32 -29 35
-29 147 l0 115 -30 0 c-28 0 -30 3 -30 35 0 32 2 35 30 35 28 0 30 2 30 39 0
36 3 40 28 44 43 6 47 3 50 -41z m242 -156 c0 -63 4 -126 9 -139 12 -32 61
-52 97 -40 52 17 63 46 66 173 l3 115 43 3 42 3 0 -181 0 -181 -42 3 c-35 2
-42 6 -40 21 4 22 -4 22 -30 -2 -27 -26 -86 -35 -135 -22 -40 11 -61 28 -82
68 -12 23 -26 267 -16 283 3 6 24 10 46 10 l39 0 0 -114z m877 -23 l50 -136
46 127 c26 70 47 132 47 137 0 5 20 9 44 9 l45 0 -29 -77 c-29 -76 -79 -203
-123 -312 -12 -30 -34 -63 -48 -73 -32 -24 -95 -33 -132 -19 -26 10 -27 12
-14 38 12 22 22 27 53 27 30 1 41 6 53 27 13 24 10 36 -52 195 -37 93 -67 175
-67 182 0 7 15 12 39 12 l38 0 50 -137z m-1752 -549 c20 -23 29 -26 63 -21 23
2 43 3 46 0 3 -3 -3 -22 -14 -43 -18 -36 -18 -37 1 -66 27 -41 24 -47 -22 -39
-36 6 -44 4 -70 -21 -25 -24 -31 -26 -39 -14 -5 8 -10 27 -10 43 0 21 -8 31
-35 44 -19 9 -35 20 -35 24 0 4 15 14 34 23 28 13 35 23 41 56 4 22 9 40 12
40 3 0 16 -12 28 -26z m460 -124 c11 -35 -3 -60 -35 -60 -19 0 -33 7 -40 20
-16 30 4 60 40 60 20 0 31 -6 35 -20z"/>
<path d="M2178 1165 c-89 -89 4 -243 115 -190 41 19 57 50 57 111 0 37 -6 51
-29 75 -40 39 -106 41 -143 4z"/>
<path d="M2590 1782 c-62 -31 -48 -101 21 -102 27 0 54 21 42 33 -3 4 1 7 9 7
15 0 28 19 28 40 0 15 -31 40 -48 40 -9 0 -33 -8 -52 -18z"/>
<path d="M498 315 c-24 -54 52 -169 144 -216 51 -26 115 -30 128 -9 22 34 11
57 -32 75 -54 21 -119 74 -138 111 -34 69 -80 87 -102 39z"/>
</g>
</svg>
